<?xml version="1.0" encoding="UTF-8"?>
<svg version="1.1" xmlns="http://www.w3.org/2000/svg" width="600" height="300">
<path d="M0 0 C2 0.6875 2 0.6875 4 2.6875 C4.125 5.3125 4.125 5.3125 4 7.6875 C5.68029297 7.63529297 5.68029297 7.63529297 7.39453125 7.58203125 C8.86717251 7.55389161 10.33982998 7.52659163 11.8125 7.5 C12.91948242 7.46229492 12.91948242 7.46229492 14.04882812 7.42382812 C19.47870223 7.35011943 19.47870223 7.35011943 21.70507812 8.79101562 C23.62345465 11.60058366 23.43800413 13.94808924 23.51171875 17.32421875 C23.54716797 18.62294922 23.58261719 19.92167969 23.61914062 21.25976562 C23.6422405 22.63150517 23.6650229 24.0032501 23.6875 25.375 C23.72067542 26.75849607 23.75516531 28.14196129 23.79101562 29.52539062 C23.87363241 32.91267883 23.94274058 36.29970357 24 39.6875 C25.28055513 38.57231145 26.56035806 37.45625914 27.83984375 36.33984375 C28.90900024 35.40773071 28.90900024 35.40773071 29.99975586 34.45678711 C31.54926671 33.08618963 33.06360645 31.67577679 34.5625 30.25 C37.87199635 28.12852798 40.14493238 28.25915915 44 28.6875 C47 30.6875 47 30.6875 48 34.4375 C48.33013451 37.85096628 47.84113665 39.5192776 45.6875 42.1875 C43 44.6875 43 44.6875 41 44.6875 C41 45.3475 41 46.0075 41 46.6875 C39.3203125 48.4140625 39.3203125 48.4140625 37.125 50.3125 C36.40570313 50.94414063 35.68640625 51.57578125 34.9453125 52.2265625 C33 53.6875 33 53.6875 31 53.6875 C31 54.3475 31 55.0075 31 55.6875 C30.34 55.6875 29.68 55.6875 29 55.6875 C29.99 58.6575 29.99 58.6575 31 61.6875 C34.75180831 59.98513764 37.39511164 57.68497453 40.4140625 54.9296875 C42 53.6875 42 53.6875 44 53.6875 C44.33 52.6975 44.66 51.7075 45 50.6875 C47.43359375 48.93359375 47.43359375 48.93359375 50.4375 47.125 C54.46127259 44.71559453 54.46127259 44.71559453 58 41.6875 C59.32 41.6875 60.64 41.6875 62 41.6875 C61.36184827 50.04424888 58.54069866 57.52916384 55.79492188 65.40039062 C53.05499229 73.57063274 51.00523803 81.49823797 55 89.6875 C57.69274195 91.33338763 60.20191716 92.10944886 63.3125 92.5625 C64.38951172 92.74425781 64.38951172 92.74425781 65.48828125 92.9296875 C72.00195397 92.30161952 77.18396929 87.0526403 81.875 82.875 C83.09793216 81.81131904 84.32189046 80.7488167 85.546875 79.6875 C86.13533203 79.17574219 86.72378906 78.66398437 87.33007812 78.13671875 C89.57417503 76.18921009 91.8286329 74.26075841 94.125 72.375 C94.78757813 71.82199219 95.45015625 71.26898438 96.1328125 70.69921875 C98 69.6875 98 69.6875 99.8828125 69.7734375 C102.80407043 71.0346448 105.18370261 72.74780098 107.75 74.625 C108.73484375 75.33527344 109.7196875 76.04554687 110.734375 76.77734375 C111.48203125 77.40769531 112.2296875 78.03804688 113 78.6875 C113 79.3475 113 80.0075 113 80.6875 C113.54140625 80.92339844 114.0828125 81.15929687 114.640625 81.40234375 C117.63600198 83.03393154 120.09644805 85.10859733 122.75 87.25 C127.5294313 90.94260171 130.8435837 93.11208043 137 92.6875 C140.31805142 91.36320727 140.31805142 91.36320727 143 89.6875 C143.66 89.6875 144.32 89.6875 145 89.6875 C149.74775796 80.04589922 146.16007595 72.05464733 142.95703125 62.37109375 C142.24685197 60.28746684 141.53199748 58.20542762 140.8125 56.125 C140.08569592 54.02095947 139.36284176 51.91554907 138.64453125 49.80859375 C138.32846924 48.8952124 138.01240723 47.98183105 137.68676758 47.04077148 C137 44.6875 137 44.6875 137 41.6875 C141.74820521 42.19719434 145.01771568 44.42169211 148.8125 47.125 C149.40998047 47.53298828 150.00746094 47.94097656 150.62304688 48.36132812 C152.12385238 49.41274958 153.56765923 50.54456337 155 51.6875 C155 52.3475 155 53.0075 155 53.6875 C155.58265625 53.95304687 156.1653125 54.21859375 156.765625 54.4921875 C159.06174228 55.72052996 160.80356018 57.09064939 162.75 58.8125 C163.67039063 59.62074219 163.67039063 59.62074219 164.609375 60.4453125 C165.06828125 60.85523438 165.5271875 61.26515625 166 61.6875 C167.98 60.6975 167.98 60.6975 170 59.6875 C169.71412605 56.47691562 168.93098143 55.62440346 166.49609375 53.3984375 C164.98208984 52.24214844 164.98208984 52.24214844 163.4375 51.0625 C161.59148515 49.64683001 159.76958303 48.19762193 158 46.6875 C158 46.0275 158 45.3675 158 44.6875 C157.401875 44.44 156.80375 44.1925 156.1875 43.9375 C153.50894866 42.40689924 152.38891737 41.46533473 151 38.6875 C150.90164188 35.77147098 151.34299338 33.59710077 152 30.6875 C155.84308764 28.12544158 157.4340304 28.01383235 162 28.6875 C164.20896079 30.21742541 166.08125322 31.89502387 168.0078125 33.765625 C170.2239008 35.90349842 172.58654374 37.77757058 175 39.6875 C175.01458252 38.78918457 175.02916504 37.89086914 175.04418945 36.96533203 C175.10519697 33.6364341 175.17933628 30.30837117 175.26245117 26.97998047 C175.29573178 25.53868658 175.32375404 24.09726137 175.34643555 22.65576172 C175.3799262 20.58504203 175.432233 18.51552907 175.48828125 16.4453125 C175.51446533 15.1989502 175.54064941 13.95258789 175.56762695 12.66845703 C175.71031006 11.68474121 175.85299316 10.70102539 176 9.6875 C179.04681061 7.65629293 179.60118324 7.44090125 183.01171875 7.4921875 C184.14770508 7.50185547 184.14770508 7.50185547 185.30664062 7.51171875 C186.09232422 7.52847656 186.87800781 7.54523437 187.6875 7.5625 C188.48478516 7.57152344 189.28207031 7.58054687 190.10351562 7.58984375 C192.069139 7.61338415 194.03460775 7.64925453 196 7.6875 C196.185625 6.264375 196.185625 6.264375 196.375 4.8125 C197 1.6875 197 1.6875 199 -0.3125 C202.29714793 0.01721479 203.6226839 0.3101839 206 2.6875 C206.125 5.3125 206.125 5.3125 206 7.6875 C207.37285156 7.67009766 207.37285156 7.67009766 208.7734375 7.65234375 C210.55621094 7.63880859 210.55621094 7.63880859 212.375 7.625 C213.55835938 7.61339844 214.74171875 7.60179687 215.9609375 7.58984375 C219 7.6875 219 7.6875 221 8.6875 C221.92690875 11.46822625 222.12640158 13.13358864 222.12939453 16.00366211 C222.13254669 16.87143784 222.13569885 17.73921356 222.13894653 18.63328552 C222.13591019 20.03490685 222.13591019 20.03490685 222.1328125 21.46484375 C222.13424759 22.90918541 222.13424759 22.90918541 222.13571167 24.38270569 C222.13639226 26.41944443 222.13454638 28.45618535 222.13037109 30.49291992 C222.12502699 33.60926192 222.13031717 36.72545941 222.13671875 39.84179688 C222.13605783 41.82031282 222.13477639 43.79882867 222.1328125 45.77734375 C222.13483673 46.70973373 222.13686096 47.64212372 222.13894653 48.60276794 C222.13579437 49.47369583 222.13264221 50.34462372 222.12939453 51.24194336 C222.12820114 52.38752968 222.12820114 52.38752968 222.12698364 53.55625916 C221.99643057 55.74740777 221.71756899 57.61166148 221 59.6875 C218.47524538 60.94987731 216.68799534 60.78606404 213.875 60.75 C212.96492187 60.74097656 212.05484375 60.73195312 211.1171875 60.72265625 C210.41851562 60.71105469 209.71984375 60.69945312 209 60.6875 C208.8453125 62.110625 208.8453125 62.110625 208.6875 63.5625 C208 66.6875 208 66.6875 205 68.6875 C201.9375 68.5 201.9375 68.5 199 67.6875 C197 64.6875 197 64.6875 197 60.6875 C195.56208484 60.82918137 194.1246763 60.97601043 192.6875 61.125 C191.88699219 61.20621094 191.08648437 61.28742188 190.26171875 61.37109375 C187.83912821 61.64015693 187.83912821 61.64015693 185 62.6875 C184.29605388 64.00153276 183.63654342 65.3395257 183 66.6875 C180.17942488 70.71689303 177.18338464 73.12042306 173 75.6875 C173.33 77.3375 173.66 78.9875 174 80.6875 C174.99 80.6875 175.98 80.6875 177 80.6875 C177.82011312 82.24601755 178.63076213 83.80951716 179.4375 85.375 C179.88996094 86.24511719 180.34242188 87.11523438 180.80859375 88.01171875 C181.95991928 90.59748264 182.56320753 92.90106528 183 95.6875 C186.96 96.6775 186.96 96.6775 191 97.6875 C190.566875 96.7696875 190.13375 95.851875 189.6875 94.90625 C183.79501488 82.07392113 183.79501488 82.07392113 185 75.6875 C187.04394838 73.26504266 188.3654425 72.81766564 191.4375 72.1875 C195.17210326 72.91620308 196.87096009 74.69550605 199 77.6875 C206.10126506 89.51680942 210.53104091 103.21071293 209.75390625 117.07421875 C208.90947066 137.80869342 216.42337403 153.54366051 225.19384766 171.84423828 C227.04703169 175.73713005 228.69125494 179.68987237 230.2175293 183.72241211 C230.98796287 185.74343944 230.98796287 185.74343944 232.08203125 187.8203125 C233.72483509 191.16184541 233.2921396 194.00654108 233 197.6875 C231.80186462 199.40855408 231.80186462 199.40855408 230 200.6875 C227.65406799 201.07276917 227.65406799 201.07276917 224.85766602 201.08813477 C223.28572227 201.10814293 223.28572227 201.10814293 221.68202209 201.1285553 C219.98510475 201.12872902 219.98510475 201.12872902 218.25390625 201.12890625 C217.09124741 201.14211411 215.92858856 201.15532196 214.73069763 201.16893005 C211.00794088 201.2099074 207.28543161 201.23151855 203.5625 201.25 C199.84321457 201.27377231 196.12416286 201.30188431 192.40501404 201.34178162 C190.08906691 201.36616507 187.77299576 201.38100206 185.45692444 201.38539124 C183.88025246 201.40067116 183.88025246 201.40067116 182.27172852 201.41625977 C180.88631615 201.42267235 180.88631615 201.42267235 179.47291565 201.42921448 C176.81953565 201.70634873 175.20752946 202.19644821 173 203.6875 C172.67 204.6775 172.34 205.6675 172 206.6875 C157.88869396 218.89250111 141.29906646 227.08024277 123 230.6875 C121.97132813 230.89246094 120.94265625 231.09742188 119.8828125 231.30859375 C104.28461584 233.96946259 88.29983327 233.80604971 73 229.6875 C72.34692871 229.51589355 71.69385742 229.34428711 71.02099609 229.16748047 C56.36500503 225.24308372 39.94231805 218.24143826 29.3707428 206.94680786 C25.57544395 203.02487386 22.8037168 201.22545103 17.29003906 200.88037109 C15.11507971 200.87340851 12.93979822 200.9020524 10.765625 200.9609375 C9.03224884 200.96028793 9.03224884 200.96028793 7.26385498 200.95962524 C3.59152912 200.9609596 -0.0781125 201.00758787 -3.75 201.0625 C-7.43587781 201.10672861 -11.12054996 201.14055246 -14.80670166 201.14395142 C-17.09507482 201.14689277 -19.38356897 201.17370465 -21.67132568 201.22689819 C-29.3370715 201.24875344 -29.3370715 201.24875344 -32.73632812 198.37084961 C-34.47946202 194.66938425 -34.00560394 192.62043406 -33 188.6875 C-32.16097209 186.42796598 -31.240262 184.19746285 -30.25 182 C-29.69995161 180.76066915 -29.15048086 179.52108178 -28.6015625 178.28125 C-27.80878906 176.50234375 -27.80878906 176.50234375 -27 174.6875 C-26.20114959 172.79468248 -25.40912346 170.89896565 -24.625 169 C-22.39104394 163.61819676 -20.13607907 158.24544907 -17.875 152.875 C-17.53807129 152.07425049 -17.20114258 151.27350098 -16.85400391 150.44848633 C-16.52835449 149.67529053 -16.20270508 148.90209473 -15.8671875 148.10546875 C-15.55305908 147.34411621 -15.23893066 146.58276367 -14.9152832 145.79833984 C-14.12948811 143.98612742 -13.21832152 142.22919778 -12.28515625 140.48828125 C-9.91433641 134.96035152 -10.5970408 128.58346406 -10.5625 122.6875 C-10.34317196 112.01705873 -9.73060947 102.76014557 -6 92.6875 C-5.59265625 91.49898438 -5.1853125 90.31046875 -4.765625 89.0859375 C-2.32352215 82.28724377 -0.20291511 76.82277674 6 72.6875 C8.4375 72.25 8.4375 72.25 11 72.6875 C13.375 74.6875 13.375 74.6875 15 77.6875 C15 83.37316874 13.38536981 87.62230168 10.9375 92.70703125 C9.8899839 94.81741693 9.8899839 94.81741693 9 97.6875 C12.44107712 97.21795985 12.44107712 97.21795985 16 95.6875 C17.88470441 92.26258141 17.88470441 92.26258141 19 88.6875 C19.66 88.0275 20.32 87.3675 21 86.6875 C21.74692334 84.96632882 22.49130015 83.24379352 23.203125 81.5078125 C24.25805942 79.09801132 25.58954365 76.90393141 27 74.6875 C26.401875 74.584375 25.80375 74.48125 25.1875 74.375 C22.68741714 73.58925967 21.62464918 72.71831147 20 70.6875 C20 70.0275 20 69.3675 20 68.6875 C19.01 68.3575 18.02 68.0275 17 67.6875 C16.319375 66.6975 15.63875 65.7075 14.9375 64.6875 C13.16970283 62.40682341 12.30301132 61.76092912 9.453125 61.0703125 C6.95871752 60.83778299 4.50466085 60.69722684 2 60.6875 C1.896875 61.450625 1.79375 62.21375 1.6875 63 C0.92796199 65.96910312 0.63004984 67.1094701 -2 68.6875 C-5.6875 68.375 -5.6875 68.375 -9 67.6875 C-9.33 65.3775 -9.66 63.0675 -10 60.6875 C-10.75925781 60.74550781 -11.51851562 60.80351563 -12.30078125 60.86328125 C-13.29464844 60.90839844 -14.28851562 60.95351562 -15.3125 61 C-16.29863281 61.05800781 -17.28476562 61.11601563 -18.30078125 61.17578125 C-21 60.6875 -21 60.6875 -22.64379883 58.78027344 C-24.5654735 54.39795576 -24.42956038 50.45086341 -24.3984375 45.71484375 C-24.40274277 44.27474693 -24.40274277 44.27474693 -24.40713501 42.80555725 C-24.40917222 40.78076587 -24.4036664 38.75595466 -24.39111328 36.73120117 C-24.37503736 33.6322028 -24.39098287 30.53450513 -24.41015625 27.43554688 C-24.4081741 25.46614296 -24.40433102 23.49673985 -24.3984375 21.52734375 C-24.40451019 20.60122787 -24.41058289 19.675112 -24.4168396 18.72093201 C-24.34754839 12.38661582 -24.34754839 12.38661582 -22.7121582 9.09692383 C-19.80845083 6.70663398 -16.38209574 7.27538735 -12.8125 7.4375 C-12.06291016 7.45554687 -11.31332031 7.47359375 -10.54101562 7.4921875 C-8.6934629 7.53925891 -6.84656841 7.61100234 -5 7.6875 C-4.87625 6.553125 -4.7525 5.41875 -4.625 4.25 C-4.315625 2.4865625 -4.315625 2.4865625 -4 0.6875 C-2 -0.3125 -2 -0.3125 0 0 Z M117 144.6875 C114.69 147.9875 112.38 151.2875 110 154.6875 C110.33 155.3475 110.66 156.0075 111 156.6875 C112.7074998 155.40687515 114.37373596 154.06982443 116 152.6875 C116 152.0275 116 151.3675 116 150.6875 C117.65 150.0275 119.3 149.3675 121 148.6875 C121 148.0275 121 147.3675 121 146.6875 C119.68 146.0275 118.36 145.3675 117 144.6875 Z M86 168.6875 C85.34 169.3475 84.68 170.0075 84 170.6875 C85.98 172.3375 87.96 173.9875 90 175.6875 C89.67 174.0375 89.34 172.3875 89 170.6875 C88.34 170.6875 87.68 170.6875 87 170.6875 C86.67 170.0275 86.34 169.3675 86 168.6875 Z M-10 181.6875 C-10.99 183.0075 -11.98 184.3275 -13 185.6875 C17.36 185.6875 47.72 185.6875 79 185.6875 C66.54388227 173.23138227 49.60946654 170.46101208 32.5625 170.3125 C17.34078292 170.40817936 2.45955247 172.19450764 -10 181.6875 Z M111 172.6875 C110.67 173.3475 110.34 174.0075 110 174.6875 C110.66 174.6875 111.32 174.6875 112 174.6875 C111.67 174.0275 111.34 173.3675 111 172.6875 Z M49 200.6875 C59.59388716 211.61332149 78.43615773 216.52566501 93.29296875 216.85546875 C108.26317284 217.02907805 108.26317284 217.02907805 123 214.6875 C123.78246094 214.51605469 124.56492187 214.34460938 125.37109375 214.16796875 C131.05763696 212.7206548 136.19762625 210.27464375 141.4375 207.6875 C142.13649414 207.34315918 142.83548828 206.99881836 143.55566406 206.64404297 C146.94180938 204.9212528 149.28377828 203.40372172 152 200.6875 C141.11 200.6875 130.22 200.6875 119 200.6875 C118.67 201.6775 118.34 202.6675 118 203.6875 C117.34 203.6875 116.68 203.6875 116 203.6875 C115.67 204.3475 115.34 205.0075 115 205.6875 C110.03890518 207.46743478 105.40100921 208.07457907 100.125 208.0625 C99.42608643 208.06161377 98.72717285 208.06072754 98.00708008 208.05981445 C92.33371187 207.93017131 87.69589861 206.91525559 83 203.6875 C82.61585937 203.17445313 82.23171875 202.66140625 81.8359375 202.1328125 C78.99137931 199.89347945 76.49016576 200.35088573 72.92578125 200.39453125 C72.2419487 200.39877609 71.55811615 200.40302094 70.8535614 200.40739441 C68.67280439 200.42416647 66.49297691 200.46181343 64.3125 200.5 C62.83269565 200.51504886 61.3528768 200.52873692 59.87304688 200.54101562 C56.24839664 200.57406431 52.62428906 200.62583554 49 200.6875 Z " fill="#0B1C2B" transform="translate(40,48.3125)"/>
<path d="M0 0 C2 0.6875 2 0.6875 4 2.6875 C4.125 5.3125 4.125 5.3125 4 7.6875 C5.68029297 7.63529297 5.68029297 7.63529297 7.39453125 7.58203125 C8.86717251 7.55389161 10.33982998 7.52659163 11.8125 7.5 C12.91948242 7.46229492 12.91948242 7.46229492 14.04882812 7.42382812 C19.47870223 7.35011943 19.47870223 7.35011943 21.70507812 8.79101562 C23.62345465 11.60058366 23.43800413 13.94808924 23.51171875 17.32421875 C23.54716797 18.62294922 23.58261719 19.92167969 23.61914062 21.25976562 C23.6422405 22.63150517 23.6650229 24.0032501 23.6875 25.375 C23.72067542 26.75849607 23.75516531 28.14196129 23.79101562 29.52539062 C23.87363241 32.91267883 23.94274058 36.29970357 24 39.6875 C25.28055513 38.57231145 26.56035806 37.45625914 27.83984375 36.33984375 C28.90900024 35.40773071 28.90900024 35.40773071 29.99975586 34.45678711 C31.54926671 33.08618963 33.06360645 31.67577679 34.5625 30.25 C37.87199635 28.12852798 40.14493238 28.25915915 44 28.6875 C47 30.6875 47 30.6875 48 34.4375 C48.33013451 37.85096628 47.84113665 39.5192776 45.6875 42.1875 C43 44.6875 43 44.6875 41 44.6875 C41 45.3475 41 46.0075 41 46.6875 C39.3203125 48.4140625 39.3203125 48.4140625 37.125 50.3125 C36.40570313 50.94414063 35.68640625 51.57578125 34.9453125 52.2265625 C33 53.6875 33 53.6875 31 53.6875 C31 54.3475 31 55.0075 31 55.6875 C30.34 55.6875 29.68 55.6875 29 55.6875 C29.66 57.6675 30.32 59.6475 31 61.6875 C34.75180831 59.98513764 37.39511164 57.68497453 40.4140625 54.9296875 C42 53.6875 42 53.6875 44 53.6875 C44.33 52.6975 44.66 51.7075 45 50.6875 C47.43359375 48.93359375 47.43359375 48.93359375 50.4375 47.125 C54.46127259 44.71559453 54.46127259 44.71559453 58 41.6875 C59.32 41.6875 60.64 41.6875 62 41.6875 C61.36184827 50.04424888 58.54069866 57.52916384 55.79492188 65.40039062 C53.05499229 73.57063274 51.00523803 81.49823797 55 89.6875 C57.69274195 91.33338763 60.20191716 92.10944886 63.3125 92.5625 C64.38951172 92.74425781 64.38951172 92.74425781 65.48828125 92.9296875 C72.00195397 92.30161952 77.18396929 87.0526403 81.875 82.875 C83.09793216 81.81131904 84.32189046 80.7488167 85.546875 79.6875 C86.13533203 79.17574219 86.72378906 78.66398437 87.33007812 78.13671875 C89.57417503 76.18921009 91.8286329 74.26075841 94.125 72.375 C94.78757812 71.82199219 95.45015625 71.26898438 96.1328125 70.69921875 C98 69.6875 98 69.6875 99.8828125 69.7734375 C102.80407043 71.0346448 105.18370261 72.74780098 107.75 74.625 C108.73484375 75.33527344 109.7196875 76.04554687 110.734375 76.77734375 C111.48203125 77.40769531 112.2296875 78.03804688 113 78.6875 C113 79.3475 113 80.0075 113 80.6875 C113.54140625 80.92339844 114.0828125 81.15929687 114.640625 81.40234375 C117.63600198 83.03393154 120.09644805 85.10859733 122.75 87.25 C127.5294313 90.94260171 130.8435837 93.11208043 137 92.6875 C140.31805142 91.36320727 140.31805142 91.36320727 143 89.6875 C143.66 89.6875 144.32 89.6875 145 89.6875 C149.74775796 80.04589922 146.16007595 72.05464733 142.95703125 62.37109375 C142.24685197 60.28746684 141.53199748 58.20542762 140.8125 56.125 C140.08569592 54.02095947 139.36284176 51.91554907 138.64453125 49.80859375 C138.32846924 48.8952124 138.01240723 47.98183105 137.68676758 47.04077148 C137 44.6875 137 44.6875 137 41.6875 C141.74820521 42.19719434 145.01771568 44.42169211 148.8125 47.125 C149.40998047 47.53298828 150.00746094 47.94097656 150.62304688 48.36132812 C152.12385238 49.41274958 153.56765923 50.54456337 155 51.6875 C155 52.3475 155 53.0075 155 53.6875 C155.58265625 53.95304687 156.1653125 54.21859375 156.765625 54.4921875 C159.06174228 55.72052996 160.80356018 57.09064939 162.75 58.8125 C163.67039063 59.62074219 163.67039063 59.62074219 164.609375 60.4453125 C165.06828125 60.85523438 165.5271875 61.26515625 166 61.6875 C167.98 60.6975 167.98 60.6975 170 59.6875 C169.71412605 56.47691562 168.93098143 55.62440346 166.49609375 53.3984375 C164.98208984 52.24214844 164.98208984 52.24214844 163.4375 51.0625 C161.59148515 49.64683001 159.76958303 48.19762193 158 46.6875 C158 46.0275 158 45.3675 158 44.6875 C157.401875 44.44 156.80375 44.1925 156.1875 43.9375 C153.50894866 42.40689924 152.38891737 41.46533473 151 38.6875 C150.90164188 35.77147098 151.34299338 33.59710077 152 30.6875 C155.84308764 28.12544158 157.4340304 28.01383235 162 28.6875 C164.20896079 30.21742541 166.08125322 31.89502387 168.0078125 33.765625 C170.2239008 35.90349842 172.58654374 37.77757058 175 39.6875 C175.01458252 38.78918457 175.02916504 37.89086914 175.04418945 36.96533203 C175.10519697 33.6364341 175.17933628 30.30837117 175.26245117 26.97998047 C175.29573178 25.53868658 175.32375404 24.09726137 175.34643555 22.65576172 C175.3799262 20.58504203 175.432233 18.51552907 175.48828125 16.4453125 C175.51446533 15.1989502 175.54064941 13.95258789 175.56762695 12.66845703 C175.71031006 11.68474121 175.85299316 10.70102539 176 9.6875 C179.04681061 7.65629293 179.60118324 7.44090125 183.01171875 7.4921875 C184.14770508 7.50185547 184.14770508 7.50185547 185.30664062 7.51171875 C186.09232422 7.52847656 186.87800781 7.54523437 187.6875 7.5625 C188.48478516 7.57152344 189.28207031 7.58054687 190.10351562 7.58984375 C192.069139 7.61338415 194.03460775 7.64925453 196 7.6875 C196.185625 6.264375 196.185625 6.264375 196.375 4.8125 C197 1.6875 197 1.6875 199 -0.3125 C202.29714793 0.01721479 203.6226839 0.3101839 206 2.6875 C206.125 5.3125 206.125 5.3125 206 7.6875 C207.37285156 7.67009766 207.37285156 7.67009766 208.7734375 7.65234375 C210.55621094 7.63880859 210.55621094 7.63880859 212.375 7.625 C213.55835938 7.61339844 214.74171875 7.60179687 215.9609375 7.58984375 C219 7.6875 219 7.6875 221 8.6875 C221.92690875 11.46822625 222.12640158 13.13358864 222.12939453 16.00366211 C222.13254669 16.87143784 222.13569885 17.73921356 222.13894653 18.63328552 C222.13591019 20.03490685 222.13591019 20.03490685 222.1328125 21.46484375 C222.13376923 22.42773819 222.13472595 23.39063263 222.13571167 24.38270569 C222.13639226 26.41944443 222.13454638 28.45618535 222.13037109 30.49291992 C222.12502699 33.60926192 222.13031717 36.72545941 222.13671875 39.84179688 C222.13605783 41.82031282 222.13477639 43.79882867 222.1328125 45.77734375 C222.13483673 46.70973373 222.13686096 47.64212372 222.13894653 48.60276794 C222.13421829 49.90915977 222.13421829 49.90915977 222.12939453 51.24194336 C222.12859894 52.00566757 222.12780334 52.76939178 222.12698364 53.55625916 C221.99643057 55.74740777 221.71756899 57.61166148 221 59.6875 C218.47524538 60.94987731 216.68799534 60.78606404 213.875 60.75 C212.96492187 60.74097656 212.05484375 60.73195312 211.1171875 60.72265625 C210.41851562 60.71105469 209.71984375 60.69945312 209 60.6875 C208.8453125 62.110625 208.8453125 62.110625 208.6875 63.5625 C208 66.6875 208 66.6875 205 68.6875 C201.9375 68.5 201.9375 68.5 199 67.6875 C197 64.6875 197 64.6875 197 60.6875 C195.56208484 60.82918137 194.1246763 60.97601043 192.6875 61.125 C191.88699219 61.20621094 191.08648437 61.28742188 190.26171875 61.37109375 C187.83912821 61.64015693 187.83912821 61.64015693 185 62.6875 C184.29605388 64.00153276 183.63654342 65.3395257 183 66.6875 C180.17942488 70.71689303 177.18338464 73.12042306 173 75.6875 C173.33 77.3375 173.66 78.9875 174 80.6875 C174.99 80.6875 175.98 80.6875 177 80.6875 C177.84850459 82.22086901 178.67814945 83.76468146 179.5 85.3125 C179.9640625 86.17101562 180.428125 87.02953125 180.90625 87.9140625 C182.13762307 91.03647277 182.08042897 93.36176198 182 96.6875 C181.14994385 96.6968457 180.2998877 96.70619141 179.42407227 96.71582031 C154.0616758 97.06595423 129.46365905 97.97093089 110 116.6875 C106.42942793 120.73277241 103.29046449 124.78568469 101 129.6875 C100.34 129.6875 99.68 129.6875 99 129.6875 C98.75507813 129.14222656 98.51015625 128.59695312 98.2578125 128.03515625 C92.24576906 115.90741346 80.33667353 107.38916161 67.72705078 102.87353516 C58.00218634 99.7662883 48.43245823 97.70145027 38.19140625 97.37109375 C36.95068359 97.32919922 35.70996094 97.28730469 34.43164062 97.24414062 C33.15482422 97.20482422 31.87800781 97.16550781 30.5625 97.125 C29.25861328 97.08181641 27.95472656 97.03863281 26.61132812 96.99414062 C23.40764684 96.88852476 20.20389389 96.78641899 17 96.6875 C17.8636725 89.58257154 17.8636725 89.58257154 21 86.6875 C22.03101947 84.36770619 23.02936517 82.03320085 24 79.6875 C24.96817992 78.00214976 25.95650161 76.32728318 27 74.6875 C26.401875 74.584375 25.80375 74.48125 25.1875 74.375 C22.68741714 73.58925967 21.62464918 72.71831147 20 70.6875 C20 70.0275 20 69.3675 20 68.6875 C19.01 68.3575 18.02 68.0275 17 67.6875 C16.319375 66.6975 15.63875 65.7075 14.9375 64.6875 C13.16970283 62.40682341 12.30301132 61.76092912 9.453125 61.0703125 C6.95871752 60.83778299 4.50466085 60.69722684 2 60.6875 C1.896875 61.450625 1.79375 62.21375 1.6875 63 C0.92796199 65.96910312 0.63004984 67.1094701 -2 68.6875 C-5.6875 68.375 -5.6875 68.375 -9 67.6875 C-9.33 65.3775 -9.66 63.0675 -10 60.6875 C-10.75925781 60.74550781 -11.51851562 60.80351563 -12.30078125 60.86328125 C-13.29464844 60.90839844 -14.28851563 60.95351562 -15.3125 61 C-16.29863281 61.05800781 -17.28476562 61.11601563 -18.30078125 61.17578125 C-21 60.6875 -21 60.6875 -22.64379883 58.78027344 C-24.5654735 54.39795576 -24.42956038 50.45086341 -24.3984375 45.71484375 C-24.40130768 44.75477921 -24.40417786 43.79471466 -24.40713501 42.80555725 C-24.40917222 40.78076587 -24.4036664 38.75595466 -24.39111328 36.73120117 C-24.37503736 33.6322028 -24.39098287 30.53450513 -24.41015625 27.43554688 C-24.4081741 25.46614296 -24.40433102 23.49673985 -24.3984375 21.52734375 C-24.40451019 20.60122787 -24.41058289 19.675112 -24.4168396 18.72093201 C-24.34754839 12.38661582 -24.34754839 12.38661582 -22.7121582 9.09692383 C-19.80845083 6.70663398 -16.38209574 7.27538735 -12.8125 7.4375 C-12.06291016 7.45554687 -11.31332031 7.47359375 -10.54101562 7.4921875 C-8.6934629 7.53925891 -6.84656841 7.61100234 -5 7.6875 C-4.87625 6.553125 -4.7525 5.41875 -4.625 4.25 C-4.315625 2.4865625 -4.315625 2.4865625 -4 0.6875 C-2 -0.3125 -2 -0.3125 0 0 Z " fill="#4CA7F7" transform="translate(40,48.3125)"/>
<path d="M0 0 C2.1640625 -0.29296875 2.1640625 -0.29296875 4.625 -0.1875 C5.44226563 -0.16042969 6.25953125 -0.13335938 7.1015625 -0.10546875 C7.72804688 -0.07066406 8.35453125 -0.03585938 9 0 C11.9425762 4.79255027 13.91915773 9.30281588 15.375 14.75 C17.17067747 21.23733627 19.11969476 27.66508243 21.1640625 34.078125 C21.43839111 34.94260254 21.71271973 35.80708008 21.99536133 36.69775391 C22.66232378 38.79890359 23.33055133 40.89964141 24 43 C25.25659424 43.0093457 26.51318848 43.01869141 27.80786133 43.02832031 C32.46544991 43.06816132 37.12237383 43.13390343 41.77954102 43.20751953 C43.79605579 43.2357634 45.81268198 43.25696088 47.8293457 43.27099609 C50.7266559 43.29237846 53.62262172 43.33900366 56.51953125 43.390625 C57.87435356 43.39246796 57.87435356 43.39246796 59.25654602 43.39434814 C65.47186207 43.54013799 65.47186207 43.54013799 68.12646484 45.8515625 C69 48 69 48 68.45703125 50.984375 C66.88272596 54.24272269 65.4216319 55.90517985 62.6875 58.25 C61.79675781 59.01570313 60.90601563 59.78140625 59.98828125 60.5703125 C56.28254613 63.58334158 52.51534306 66.50533173 48.70703125 69.38720703 C44.28928888 72.73618338 40.10940423 76.28410069 36 80 C38.04110644 88.59428628 40.47110456 97.01405531 43.125 105.4375 C43.83823705 107.70630963 44.54926289 109.97581587 45.2578125 112.24609375 C45.5686377 113.23279053 45.87946289 114.2194873 46.19970703 115.23608398 C48.28354869 122.43290261 48.28354869 122.43290261 46.625 125.75 C45 128 45 128 44 129 C37.47323751 128.85166449 34.28714312 126.33682566 29.5 122.125 C28.09981017 120.9453553 26.69741153 119.76832807 25.29296875 118.59375 C24.58446777 117.99691406 23.8759668 117.40007812 23.14599609 116.78515625 C19.76786366 113.97504199 16.31696376 111.275207 12.8125 108.625 C12.20148438 108.14305176 11.59046875 107.66110352 10.9609375 107.16455078 C8.15646803 105.06510245 6.6410245 103.95378462 3.07421875 104.2109375 C2.38972656 104.47132812 1.70523438 104.73171875 1 105 C0.505 106.485 0.505 106.485 0 108 C-2.15234375 109.76171875 -2.15234375 109.76171875 -4.9375 111.6875 C-8.81557851 114.42733728 -12.60879293 117.21552837 -16.3125 120.1875 C-17.12976563 120.83976562 -17.94703125 121.49203125 -18.7890625 122.1640625 C-20.95971108 123.92064126 -20.95971108 123.92064126 -22.7109375 125.6484375 C-25.55237504 128.36960255 -26.72743995 128.99545733 -30.75 129.0625 C-34 128 -34 128 -35.24414062 126.21704102 C-37.8514138 118.569545 -31.92621751 107.00525705 -29.56640625 99.65429688 C-27.52744852 93.1567599 -26.05788529 86.72759196 -25 80 C-35.45158588 71.43135393 -35.45158588 71.43135393 -46.0625 63.0625 C-56.49267578 55.01464844 -56.49267578 55.01464844 -58 52 C-58.1875 49 -58.1875 49 -58 46 C-56 44 -56 44 -54.16500854 43.75949097 C-53.42332428 43.76393219 -52.68164001 43.76837341 -51.91748047 43.77294922 C-50.65639969 43.77317581 -50.65639969 43.77317581 -49.36984253 43.77340698 C-48.00727829 43.78889084 -48.00727829 43.78889084 -46.6171875 43.8046875 C-45.68778351 43.8075174 -44.75837952 43.81034729 -43.80081177 43.81326294 C-40.8254115 43.82447931 -37.85030965 43.8495864 -34.875 43.875 C-32.86068142 43.88502792 -30.84635814 43.8941541 -28.83203125 43.90234375 C-23.88790544 43.92442339 -18.94400335 43.95896307 -14 44 C-13.8656958 43.1119165 -13.7313916 42.22383301 -13.59301758 41.30883789 C-13.07850063 38.43800703 -12.41144214 35.825678 -11.51171875 33.05859375 C-11.21934326 32.15085205 -10.92696777 31.24311035 -10.62573242 30.30786133 C-10.16130737 28.88703247 -10.16130737 28.88703247 -9.6875 27.4375 C-9.05146361 25.47155456 -8.41604459 23.50540927 -7.78125 21.5390625 C-7.47445312 20.59063477 -7.16765625 19.64220703 -6.8515625 18.66503906 C-5.44122059 14.25125112 -4.12591938 9.81026755 -2.82421875 5.36328125 C-2 3 -2 3 0 0 Z M4 32 C3.20445814 34.64472123 2.41350837 37.29068116 1.625 39.9375 C1.29242188 41.04061523 1.29242188 41.04061523 0.953125 42.16601562 C0.73398438 42.90400391 0.51484375 43.64199219 0.2890625 44.40234375 C0.09006348 45.06741943 -0.10893555 45.73249512 -0.31396484 46.41772461 C-1.33157643 50.24807255 -2.14025726 54.13115765 -3 58 C-10.92 58 -18.84 58 -27 58 C-23.63812597 62.20234254 -21.12662651 64.61107738 -16.875 67.6875 C-11.14349776 71.85650224 -11.14349776 71.85650224 -9 74 C-9.171875 76.1796875 -9.171875 76.1796875 -9.75 78.875 C-9.94851562 79.84824219 -10.14703125 80.82148437 -10.3515625 81.82421875 C-10.56554687 82.87222656 -10.77953125 83.92023438 -11 85 C-11.38450185 87.22754739 -11.75981635 89.45670419 -12.125 91.6875 C-12.29257813 92.70199219 -12.46015625 93.71648437 -12.6328125 94.76171875 C-12.75398438 95.50035156 -12.87515625 96.23898438 -13 97 C-8.29657381 94.45231081 -4.19806563 91.70028736 -0.08984375 88.26953125 C2.82133918 86.50105564 4.56005923 85.98344192 8 86 C10.8963457 87.47385565 13.34547405 89.41044771 15.875 91.4375 C16.56335938 91.96666016 17.25171875 92.49582031 17.9609375 93.04101562 C19.65273811 94.34511193 21.32806261 95.67053325 23 97 C24.48468162 94.03063676 23.4350766 92.11463529 22.625 88.9375 C22.356875 87.76574219 22.08875 86.59398437 21.8125 85.38671875 C21.33439014 83.39382812 20.81124886 81.40924524 20.1875 79.45703125 C19.54433241 76.93349176 19.304109 75.5237647 20 73 C23.25610498 69.40052395 27.00595326 66.72970611 31 64 C32.39643823 63.00084488 33.79239876 62.00102109 35.1875 61 C36.5796875 60.01 36.5796875 60.01 38 59 C38 58.67 38 58.34 38 58 C29.75 57.67 21.5 57.34 13 57 C10.36 48.75 7.72 40.5 5 32 C4.67 32 4.34 32 4 32 Z " fill="#0B1C2B" transform="translate(134,6)"/>
<path d="M0 0 C2 0.6875 2 0.6875 4 2.6875 C4.125 5.3125 4.125 5.3125 4 7.6875 C5.68029297 7.63529297 5.68029297 7.63529297 7.39453125 7.58203125 C8.86717251 7.55389161 10.33982998 7.52659163 11.8125 7.5 C12.91948242 7.46229492 12.91948242 7.46229492 14.04882812 7.42382812 C19.47870223 7.35011943 19.47870223 7.35011943 21.70507812 8.79101562 C23.62345465 11.60058366 23.43800413 13.94808924 23.51171875 17.32421875 C23.54716797 18.62294922 23.58261719 19.92167969 23.61914062 21.25976562 C23.6422405 22.63150517 23.6650229 24.0032501 23.6875 25.375 C23.72067542 26.75849607 23.75516531 28.14196129 23.79101562 29.52539062 C23.87363241 32.91267883 23.94274058 36.29970357 24 39.6875 C25.28055513 38.57231145 26.56035806 37.45625914 27.83984375 36.33984375 C28.90900024 35.40773071 28.90900024 35.40773071 29.99975586 34.45678711 C31.54926671 33.08618963 33.06360645 31.67577679 34.5625 30.25 C37.87199635 28.12852798 40.14493238 28.25915915 44 28.6875 C47 30.6875 47 30.6875 48 34.4375 C48.33013451 37.85096628 47.84113665 39.5192776 45.6875 42.1875 C43 44.6875 43 44.6875 41 44.6875 C41 45.3475 41 46.0075 41 46.6875 C39.3203125 48.4140625 39.3203125 48.4140625 37.125 50.3125 C36.40570313 50.94414063 35.68640625 51.57578125 34.9453125 52.2265625 C33 53.6875 33 53.6875 31 53.6875 C31 54.3475 31 55.0075 31 55.6875 C30.34 55.6875 29.68 55.6875 29 55.6875 C30.26974972 60.10272109 30.26974972 60.10272109 33 63.6875 C33.75 67.125 33.75 67.125 34 70.6875 C32 73.6875 32 73.6875 28.125 74.625 C24.86180755 74.93352001 24.27590919 74.88753416 21.5 72.875 C20 70.6875 20 70.6875 20 68.6875 C19.01 68.3575 18.02 68.0275 17 67.6875 C16.319375 66.6975 15.63875 65.7075 14.9375 64.6875 C13.16970283 62.40682341 12.30301132 61.76092912 9.453125 61.0703125 C6.95871752 60.83778299 4.50466085 60.69722684 2 60.6875 C1.896875 61.450625 1.79375 62.21375 1.6875 63 C0.92796199 65.96910312 0.63004984 67.1094701 -2 68.6875 C-5.6875 68.375 -5.6875 68.375 -9 67.6875 C-9.33 65.3775 -9.66 63.0675 -10 60.6875 C-10.75925781 60.74550781 -11.51851562 60.80351563 -12.30078125 60.86328125 C-13.29464844 60.90839844 -14.28851563 60.95351562 -15.3125 61 C-16.29863281 61.05800781 -17.28476562 61.11601563 -18.30078125 61.17578125 C-21 60.6875 -21 60.6875 -22.64379883 58.78027344 C-24.5654735 54.39795576 -24.42956038 50.45086341 -24.3984375 45.71484375 C-24.40130768 44.75477921 -24.40417786 43.79471466 -24.40713501 42.80555725 C-24.40917222 40.78076587 -24.4036664 38.75595466 -24.39111328 36.73120117 C-24.37503736 33.6322028 -24.39098287 30.53450513 -24.41015625 27.43554688 C-24.4081741 25.46614296 -24.40433102 23.49673985 -24.3984375 21.52734375 C-24.40451019 20.60122787 -24.41058289 19.675112 -24.4168396 18.72093201 C-24.34754839 12.38661582 -24.34754839 12.38661582 -22.7121582 9.09692383 C-19.80845083 6.70663398 -16.38209574 7.27538735 -12.8125 7.4375 C-12.06291016 7.45554687 -11.31332031 7.47359375 -10.54101562 7.4921875 C-8.6934629 7.53925891 -6.84656841 7.61100234 -5 7.6875 C-4.87625 6.553125 -4.7525 5.41875 -4.625 4.25 C-4.315625 2.4865625 -4.315625 2.4865625 -4 0.6875 C-2 -0.3125 -2 -0.3125 0 0 Z " fill="#0B1D2D" transform="translate(40,48.3125)"/>
<path d="M0 0 C3.29714793 0.32971479 4.6226839 0.6226839 7 3 C7.125 5.625 7.125 5.625 7 8 C8.37285156 7.98259766 8.37285156 7.98259766 9.7734375 7.96484375 C11.55621094 7.95130859 11.55621094 7.95130859 13.375 7.9375 C14.55835938 7.92589844 15.74171875 7.91429687 16.9609375 7.90234375 C20 8 20 8 22 9 C22.92690875 11.78072625 23.12640158 13.44608864 23.12939453 16.31616211 C23.13254669 17.18393784 23.13569885 18.05171356 23.13894653 18.94578552 C23.13591019 20.34740685 23.13591019 20.34740685 23.1328125 21.77734375 C23.13376923 22.74023819 23.13472595 23.70313263 23.13571167 24.69520569 C23.13639226 26.73194443 23.13454638 28.76868535 23.13037109 30.80541992 C23.12502699 33.92176192 23.13031717 37.03795941 23.13671875 40.15429688 C23.13605783 42.13281282 23.13477639 44.11132867 23.1328125 46.08984375 C23.13483673 47.02223373 23.13686096 47.95462372 23.13894653 48.91526794 C23.13421829 50.22165977 23.13421829 50.22165977 23.12939453 51.55444336 C23.12859894 52.31816757 23.12780334 53.08189178 23.12698364 53.86875916 C22.99643057 56.05990777 22.71756899 57.92416148 22 60 C19.47524538 61.26237731 17.68799534 61.09856404 14.875 61.0625 C13.96492188 61.05347656 13.05484375 61.04445312 12.1171875 61.03515625 C11.41851562 61.02355469 10.71984375 61.01195312 10 61 C9.8453125 62.423125 9.8453125 62.423125 9.6875 63.875 C9 67 9 67 6 69 C2.9375 68.8125 2.9375 68.8125 0 68 C-2 65 -2 65 -2 61 C-3.43791516 61.14168137 -4.8753237 61.28851043 -6.3125 61.4375 C-7.11300781 61.51871094 -7.91351563 61.59992188 -8.73828125 61.68359375 C-11.16087179 61.95265693 -11.16087179 61.95265693 -14 63 C-14.70394612 64.31403276 -15.36345658 65.6520257 -16 67 C-20.55865922 73.2301676 -20.55865922 73.2301676 -24 75 C-29.93106791 74.79189235 -29.93106791 74.79189235 -32.703125 72.73828125 C-34.39742995 70.46730022 -34.3092483 69.11271097 -34.1875 66.3125 C-34.16042969 65.50425781 -34.13335937 64.69601563 -34.10546875 63.86328125 C-34.07066406 63.24839844 -34.03585938 62.63351563 -34 62 C-32.02 61.505 -32.02 61.505 -30 61 C-29.67 59.68 -29.34 58.36 -29 57 C-30.62255228 55.51814875 -32.24811888 54.03959744 -33.875 52.5625 C-34.77992188 51.73878906 -35.68484375 50.91507813 -36.6171875 50.06640625 C-38.81137927 47.99092058 -38.81137927 47.99092058 -41 47 C-41 46.34 -41 45.68 -41 45 C-41.598125 44.7525 -42.19625 44.505 -42.8125 44.25 C-45.49105134 42.71939924 -46.61108263 41.77783473 -48 39 C-48.09835812 36.08397098 -47.65700662 33.90960077 -47 31 C-43.15691236 28.43794158 -41.5659696 28.32633235 -37 29 C-34.79103921 30.52992541 -32.91874678 32.20752387 -30.9921875 34.078125 C-28.7760992 36.21599842 -26.41345626 38.09007058 -24 40 C-23.98541748 39.10168457 -23.97083496 38.20336914 -23.95581055 37.27783203 C-23.89480303 33.9489341 -23.82066372 30.62087117 -23.73754883 27.29248047 C-23.70426822 25.85118658 -23.67624596 24.40976137 -23.65356445 22.96826172 C-23.6200738 20.89754203 -23.567767 18.82802907 -23.51171875 16.7578125 C-23.48553467 15.5114502 -23.45935059 14.26508789 -23.43237305 12.98095703 C-23.28968994 11.99724121 -23.14700684 11.01352539 -23 10 C-19.95318939 7.96879293 -19.39881676 7.75340125 -15.98828125 7.8046875 C-14.85229492 7.81435547 -14.85229492 7.81435547 -13.69335938 7.82421875 C-12.51483398 7.84935547 -12.51483398 7.84935547 -11.3125 7.875 C-10.51521484 7.88402344 -9.71792969 7.89304687 -8.89648438 7.90234375 C-6.930861 7.92588415 -4.96539225 7.96175453 -3 8 C-2.814375 6.576875 -2.814375 6.576875 -2.625 5.125 C-2 2 -2 2 0 0 Z " fill="#0B1C2C" transform="translate(239,48)"/>
<path d="M0 0 C0.54011719 0.37125 1.08023438 0.7425 1.63671875 1.125 C2.52359375 1.7025 3.41046875 2.28 4.32421875 2.875 C10.09105421 8.48597504 12.74976803 14.38620779 12.88671875 22.375 C12.76579387 30.65285801 10.40337009 36.30552535 4.70703125 42.359375 C-1.38486841 47.55473093 -8.55640883 48.87285498 -16.40234375 48.5703125 C-23.90890485 47.4413574 -29.63077053 43.8069068 -34.18359375 37.80078125 C-34.57289063 37.24777344 -34.9621875 36.69476563 -35.36328125 36.125 C-35.96140625 35.361875 -36.55953125 34.59875 -37.17578125 33.8125 C-40.2488344 26.8576955 -39.87221935 19.20184171 -37.36328125 12.125 C-34.02112534 5.81203883 -28.30227872 0.15900131 -21.5078125 -2.40234375 C-14.14485406 -4.02514515 -6.54565083 -3.95209107 0 0 Z M-23.73828125 15.875 C-25.63275756 19.66395262 -25.82836465 21.93924941 -25.36328125 26.125 C-24.28513917 29.11062421 -22.92795129 31.24424197 -20.36328125 33.125 C-15.51108521 34.90413855 -13.530479 35.4885534 -8.55078125 33.9375 C-4.50309698 31.63587561 -2.83461868 30.53901229 -1.36328125 26.125 C-1.20573421 24.16822445 -1.20573421 24.16822445 -1.23828125 22.125 C-1.23570312 21.444375 -1.233125 20.76375 -1.23046875 20.0625 C-1.29696999 17.90625219 -1.29696999 17.90625219 -2.36328125 15.125 C-5.53652956 12.49298329 -8.92377191 10.39919226 -12.98828125 9.625 C-17.69279444 10.61542383 -20.58508836 12.22393455 -23.73828125 15.875 Z " fill="#16293C" transform="translate(473.36328125,107.875)"/>
<path d="M0 0 C7.15833145 4.14368455 11.99009018 9.76070414 14.1875 17.78125 C15.63625868 25.12852616 14.44162771 30.52979977 10.625 37 C6.4740451 43.07587958 1.87142602 47.21643694 -5.375 49 C-14.12152039 50.00388822 -21.0487556 48.97429302 -28.375 43.9375 C-29.365 42.9784375 -29.365 42.9784375 -30.375 42 C-30.375 41.34 -30.375 40.68 -30.375 40 C-31.035 40 -31.695 40 -32.375 40 C-37.33672015 31.67711459 -38.62232352 24.85282573 -36.5625 15.1875 C-35.43328341 12.15644495 -34.27749712 9.61593354 -32.375 7 C-31.715 7 -31.055 7 -30.375 7 C-30.045 6.01 -29.715 5.02 -29.375 4 C-27.6328125 2.6484375 -27.6328125 2.6484375 -25.5 1.375 C-24.80132812 0.94960937 -24.10265625 0.52421875 -23.3828125 0.0859375 C-16.39492785 -3.69350206 -7.10240323 -3.2511769 0 0 Z M-21.375 15 C-23.88190159 18.52533036 -24.41153681 20.29362159 -24.1875 24.625 C-22.96716115 29.69409983 -22.52779335 31.2019123 -18.125 34.25 C-13.80709282 36.52541167 -10.48399722 36.45192798 -5.75 35.4375 C-2.34889952 33.37893918 -0.74065553 30.63440586 0.625 27 C1.08574983 23.18235857 0.98259677 20.85425895 -0.5 17.3125 C-3.53313548 13.57163291 -6.51433718 11.31670856 -11.3125 10.5 C-15.31911636 11.15414145 -18.22310714 12.43561361 -21.375 15 Z " fill="#16283B" transform="translate(531.375,107)"/>
<path d="M0 0 C2.45598077 3.68397116 2.2271532 6.44723808 2.125 10.6875 C2.08375 13.100625 2.0425 15.51375 2 18 C8.27 18 14.54 18 21 18 C20.938125 15.958125 20.87625 13.91625 20.8125 11.8125 C20.66520733 6.95184177 20.83872243 3.83615706 24 0 C25.9375 -0.62890625 25.9375 -0.62890625 28 -0.5625 C28.680625 -0.56378906 29.36125 -0.56507812 30.0625 -0.56640625 C32 0 32 0 33.59399414 1.43188477 C35.76012418 5.38839144 35.44796397 9.21454582 35.43359375 13.65625 C35.4388356 14.59553345 35.44407745 15.53481689 35.44947815 16.50256348 C35.4558947 18.4862367 35.4545661 20.46994798 35.44604492 22.45361328 C35.43753003 25.48929489 35.46630924 28.52309778 35.49804688 31.55859375 C35.49965887 33.4869786 35.49908139 35.41536679 35.49609375 37.34375 C35.51294472 38.70481873 35.51294472 38.70481873 35.53013611 40.09338379 C35.46081886 46.35701397 35.46081886 46.35701397 33.15649414 49.57226562 C30.19708526 51.53157992 28.48013301 51.58002217 25 51 C22.828125 49.453125 22.828125 49.453125 21 47 C20.70550399 44.2317375 20.61656637 41.98597978 20.75 39.25 C20.8325 36.8575 20.915 34.465 21 32 C14.73 32 8.46 32 2 32 C2.11816131 36.75687746 2.11816131 36.75687746 2.27026367 41.51269531 C2.30864041 44.58118409 2.1444895 46.7254263 0.70703125 49.45703125 C-1 51 -1 51 -4.5 51.4375 C-8 51 -8 51 -9.69448853 49.74914551 C-11.34266573 47.54089088 -11.37984244 46.31502645 -11.38818359 43.57617188 C-11.39764008 42.68514771 -11.40709656 41.79412354 -11.4168396 40.87609863 C-11.40773056 39.43696106 -11.40773056 39.43696106 -11.3984375 37.96875 C-11.40130768 36.98128784 -11.40417786 35.99382568 -11.40713501 34.97644043 C-11.40917675 32.8884219 -11.40363925 30.8003843 -11.39111328 28.71240234 C-11.3750615 25.51226117 -11.39095859 22.31338304 -11.41015625 19.11328125 C-11.40817384 17.08593471 -11.40433021 15.05858895 -11.3984375 13.03125 C-11.40451019 12.07182495 -11.41058289 11.1123999 -11.4168396 10.12390137 C-11.40738312 9.2328772 -11.39792664 8.34185303 -11.38818359 7.42382812 C-11.38579681 6.64011841 -11.38341003 5.85640869 -11.38095093 5.0489502 C-10.22268353 -1.18080813 -5.08323626 -0.48411774 0 0 Z " fill="#16293C" transform="translate(390,105)"/>
<path d="M0 0 C1.96882069 1.20174769 3.61221851 2.39833874 5.29296875 3.97265625 C5.85371094 4.483125 6.41445313 4.99359375 6.9921875 5.51953125 C8.29296875 6.97265625 8.29296875 6.97265625 8.29296875 8.91015625 C6.82345542 11.9410275 5.16965128 13.24664673 2.29296875 14.97265625 C-1.63531161 14.81552504 -3.41597233 14.16669553 -6.70703125 11.97265625 C-8.99351973 11.73158299 -8.99351973 11.73158299 -11.39453125 11.84765625 C-12.60689453 11.87472656 -12.60689453 11.87472656 -13.84375 11.90234375 C-14.45863281 11.92554687 -15.07351563 11.94875 -15.70703125 11.97265625 C-16.03703125 12.96265625 -16.36703125 13.95265625 -16.70703125 14.97265625 C-16.16288574 15.12822998 -15.61874023 15.28380371 -15.05810547 15.4440918 C-12.56133902 16.16742675 -10.07193348 16.91355067 -7.58203125 17.66015625 C-6.72609375 17.90443359 -5.87015625 18.14871094 -4.98828125 18.40039062 C0.5113385 20.07142893 4.23473285 21.85607511 8.29296875 25.97265625 C10.04622978 31.23243934 9.99029609 36.17952879 7.98046875 41.34765625 C4.73963982 46.3889457 1.14326858 48.59719391 -4.70703125 49.97265625 C-14.01315199 51.21185248 -22.11519585 49.75750934 -29.70703125 43.97265625 C-31.09375 41.41015625 -31.09375 41.41015625 -31.70703125 38.97265625 C-30.83203125 36.66015625 -30.83203125 36.66015625 -29.70703125 34.97265625 C-29.04703125 34.97265625 -28.38703125 34.97265625 -27.70703125 34.97265625 C-27.70703125 34.31265625 -27.70703125 33.65265625 -27.70703125 32.97265625 C-25.08203125 32.22265625 -25.08203125 32.22265625 -21.70703125 31.97265625 C-19.69366595 33.28572058 -17.69471519 34.62103117 -15.70703125 35.97265625 C-12.92039148 36.73699173 -10.64240167 36.8764146 -7.70703125 36.97265625 C-6.71703125 36.31265625 -5.72703125 35.65265625 -4.70703125 34.97265625 C-4.70703125 34.31265625 -4.70703125 33.65265625 -4.70703125 32.97265625 C-6.44339844 32.50085938 -6.44339844 32.50085938 -8.21484375 32.01953125 C-9.75406326 31.58779895 -11.29311713 31.15547585 -12.83203125 30.72265625 C-13.59257812 30.51769531 -14.353125 30.31273437 -15.13671875 30.1015625 C-20.87344327 28.46956328 -25.66098256 26.42791468 -29.58203125 21.72265625 C-31.76607474 16.38388327 -31.31371164 12.46407889 -29.20703125 7.28515625 C-22.84037452 -2.2212216 -10.34091522 -3.92447432 0 0 Z " fill="#16293B" transform="translate(303.70703125,106.02734375)"/>
<path d="M0 0 C3.30444008 2.02254522 6.08488683 4.20097936 8.4375 7.3125 C8.5625 9.875 8.5625 9.875 7.4375 12.3125 C5.03704692 14.77963233 3.39103654 16.11690276 0 16.8125 C-2.5625 16.3125 -2.5625 16.3125 -5.5 14.3125 C-9.01676572 12.01583667 -10.45356813 11.62767802 -14.5625 12.3125 C-18.25073115 14.15661557 -20.1134206 15.43386639 -22 19.125 C-22.67601072 22.95572742 -22.5885725 25.55023417 -21.5625 29.3125 C-19.02440087 32.85045636 -16.85449062 34.55665028 -12.625 35.375 C-8.24596138 35.70363329 -6.08175571 33.83718344 -2.5625 31.3125 C1.28619144 30.68414221 2.92693218 31.04092137 6.375 32.875 C8.4375 35.3125 8.4375 35.3125 8.5625 38.8125 C6.86316676 44.09931452 4.03761471 45.39814874 -0.625 48.0625 C-6.84152492 50.53282213 -14.49117983 50.25736202 -20.8125 48.25 C-27.76479246 45.15043628 -32.74627793 40.0872311 -35.87109375 33.20703125 C-38.5223433 25.94230791 -37.94087761 19.84923364 -34.88671875 12.80859375 C-31.72998101 6.85828278 -27.25880479 1.67209507 -20.99609375 -1.0625 C-14.23329058 -2.79933549 -6.4161743 -2.98285143 0 0 Z " fill="#16293C" transform="translate(358.5625,106.6875)"/>
<path d="M0 0 C4.74820521 0.50969434 8.01771568 2.73419211 11.8125 5.4375 C12.7087207 6.04948242 12.7087207 6.04948242 13.62304688 6.67382812 C15.12385238 7.72524958 16.56765923 8.85706337 18 10 C18 10.66 18 11.32 18 12 C18.53625 12.226875 19.0725 12.45375 19.625 12.6875 C23.58292865 14.87477636 27.33590437 17.10258392 28.875 21.5 C29 24 29 24 28.625 26.5 C28.72326522 29.05664089 28.72326522 29.05664089 30.51953125 30.25 C31.79979075 31.08438501 33.08500399 31.91121725 34.375 32.73046875 C36 34 36 34 36.9375 36.8125 C36.958125 37.534375 36.97875 38.25625 37 39 C37.99 39 38.98 39 40 39 C40.84850459 40.53336901 41.67814945 42.07718146 42.5 43.625 C42.9640625 44.48351562 43.428125 45.34203125 43.90625 46.2265625 C45.13762307 49.34897277 45.08042897 51.67426198 45 55 C44.1342334 55.01458252 43.2684668 55.02916504 42.37646484 55.04418945 C39.09205207 55.10609759 35.80836276 55.18038993 32.52441406 55.26245117 C31.11663974 55.29523101 29.70874873 55.3234003 28.30078125 55.34643555 C18.49352781 55.5110573 9.55002437 56.57264745 0 59 C0.66 57.35 1.32 55.7 2 54 C1.22914063 53.93941406 0.45828125 53.87882812 -0.3359375 53.81640625 C-1.33882812 53.73261719 -2.34171875 53.64882812 -3.375 53.5625 C-4.37273437 53.48128906 -5.37046875 53.40007812 -6.3984375 53.31640625 C-9 53 -9 53 -11 52 C-11.625 49.9375 -11.625 49.9375 -12 48 C-11.505 48.309375 -11.01 48.61875 -10.5 48.9375 C-7.0699059 50.39528999 -3.71386242 51.08570452 0 51 C3.31805142 49.67570727 3.31805142 49.67570727 6 48 C6.66 48 7.32 48 8 48 C12.74775796 38.35839922 9.16007595 30.36714733 5.95703125 20.68359375 C5.24685197 18.59996684 4.53199748 16.51792762 3.8125 14.4375 C3.08569592 12.33345947 2.36284176 10.22804907 1.64453125 8.12109375 C1.32846924 7.2077124 1.01240723 6.29433105 0.68676758 5.35327148 C0 3 0 3 0 0 Z " fill="#4DA4F1" transform="translate(177,90)"/>
<path d="M0 0 C0.98613281 0.33515625 1.97226563 0.6703125 2.98828125 1.015625 C7.53634049 2.67425152 11.63131903 4.4067403 15 8 C15 9.32 15 10.64 15 12 C-15.69 12 -46.38 12 -78 12 C-78 11.34 -78 10.68 -78 10 C-57.82423311 -7.5647853 -24.30803931 -8.99613115 0 0 Z " fill="#F5F5F6" transform="translate(237,223)"/>
<path d="M0 0 C5.54854369 -0.61650485 5.54854369 -0.61650485 8 0 C10.56045086 2.48138613 10.98930382 3.89059994 11.34057617 7.48339844 C11.34010423 8.85881543 11.32333368 10.23429315 11.29296875 11.609375 C11.28872391 12.33618469 11.28447906 13.06299438 11.28010559 13.81182861 C11.2633613 16.12493504 11.22571885 18.43715855 11.1875 20.75 C11.17244758 22.32160197 11.15876015 23.89321764 11.14648438 25.46484375 C11.11347195 29.31023415 11.06172056 33.15496756 11 37 C12.52415527 36.99456177 12.52415527 36.99456177 14.07910156 36.98901367 C15.43294253 36.98608074 16.78678369 36.98323718 18.140625 36.98046875 C19.14150146 36.97654114 19.14150146 36.97654114 20.16259766 36.97253418 C34.66079408 36.95035212 34.66079408 36.95035212 37.734375 39.359375 C39 41 39 41 39.5 43.9375 C39 47 39 47 36.94165039 49.15600586 C33.37121816 51.3941563 30.52209208 51.59607561 26.43359375 51.56640625 C25.7176857 51.57260483 25.00177765 51.57880341 24.26417542 51.58518982 C22.75726679 51.59226624 21.25027962 51.58915196 19.7434082 51.57641602 C17.44010863 51.56251574 15.14084945 51.59668191 12.83789062 51.63476562 C11.36979068 51.63571663 9.90168565 51.633859 8.43359375 51.62890625 C7.74808945 51.64216446 7.06258514 51.65542267 6.35630798 51.66908264 C2.97711199 51.60334385 1.22439557 51.17657759 -1.44946289 49.07250977 C-3.65310696 44.7058178 -3.43503445 41.02803893 -3.2421875 36.2109375 C-3.21907501 35.27069733 -3.19596252 34.33045715 -3.17214966 33.36172485 C-3.11928888 31.37953837 -3.05647927 29.39759542 -2.984375 27.41601562 C-2.87514792 24.3791126 -2.79831072 21.34268409 -2.7265625 18.3046875 C-2.67117079 16.37754862 -2.61394204 14.45046148 -2.5546875 12.5234375 C-2.53058807 11.61403412 -2.50648865 10.70463074 -2.48165894 9.76766968 C-2.43248825 8.50087875 -2.43248825 8.50087875 -2.38232422 7.20849609 C-2.35693573 6.46634857 -2.33154724 5.72420105 -2.3053894 4.95956421 C-2 3 -2 3 0 0 Z " fill="#152739" transform="translate(558,105)"/>
<path d="M0 0 C0.82169678 0.13510986 1.64339355 0.27021973 2.48999023 0.40942383 C8.54394385 1.52159811 8.54394385 1.52159811 10.75390625 3.83984375 C11.02074219 4.53207031 11.28757812 5.22429687 11.5625 5.9375 C11.85253906 6.62714844 12.14257812 7.31679687 12.44140625 8.02734375 C13 10 13 10 13 13 C11.80375 12.731875 10.6075 12.46375 9.375 12.1875 C7.5834235 11.79125875 5.79174342 11.39548576 4 11 C2.86691406 10.74734375 1.73382813 10.4946875 0.56640625 10.234375 C-1.22990234 9.83992187 -1.22990234 9.83992187 -3.0625 9.4375 C-4.18785156 9.18871094 -5.31320313 8.93992188 -6.47265625 8.68359375 C-29.22605202 4.27402093 -53.23511108 6.91268651 -72.87890625 19.765625 C-74.94611603 20.96864211 -76.66349999 21.55495238 -79 22 C-79.8125 20.375 -79.8125 20.375 -80 18 C-72.33867885 6.11174304 -58.12242438 1.41484037 -44.92871094 -1.44970703 C-29.5960717 -4.3069805 -15.15282056 -2.83342815 0 0 Z " fill="#F5F6F6" transform="translate(232,199)"/>
<path d="M0 0 C2.140625 1.95703125 2.140625 1.95703125 2.453125 4.70703125 C2.35 5.44953125 2.246875 6.19203125 2.140625 6.95703125 C0.53125 7.65625 0.53125 7.65625 -1.859375 7.95703125 C-4.75 6.6640625 -4.75 6.6640625 -8.109375 4.76953125 C-22.34935759 -2.84306189 -37.90939499 -4.47246638 -53.859375 -4.04296875 C-54.96410156 -4.01460937 -56.06882812 -3.98625 -57.20703125 -3.95703125 C-65.05953113 -3.58521051 -72.0758814 -2.15941513 -79.58203125 0.01953125 C-82.33677891 0.80754011 -85.04272526 1.4458812 -87.859375 1.95703125 C-86.41720997 -6.87830166 -86.41720997 -6.87830166 -83.21875 -9.26953125 C-80.78121366 -10.11615647 -78.40033707 -10.5866327 -75.859375 -11.04296875 C-74.75722656 -11.31625 -73.65507813 -11.58953125 -72.51953125 -11.87109375 C-47.96159659 -17.44668263 -20.89190529 -14.92686676 0 0 Z " fill="#F4F5F5" transform="translate(121.859375,210.04296875)"/>
<path d="M0 0 C1.05501709 0.00821777 2.11003418 0.01643555 3.19702148 0.02490234 C21.4678824 0.28694106 38.42772491 4.24623925 52.1015625 17.109375 C55.16060711 20.37794321 55.16060711 20.37794321 56.125 22.25 C55.76953125 24.45703125 55.76953125 24.45703125 55.125 26.25 C52.61205984 25.00317036 50.11513711 23.72986995 47.62109375 22.4453125 C25.33547015 11.02736954 2.02384625 6.23853304 -22.875 12.25 C-23.69613281 12.44078125 -24.51726563 12.6315625 -25.36328125 12.828125 C-27.20752403 13.2740559 -29.04285109 13.75672914 -30.875 14.25 C-28.78042311 6.12712864 -28.78042311 6.12712864 -25.875 3.3125 C-17.48457945 0.34089272 -8.82519893 -0.0837723 0 0 Z " fill="#F3F4F5" transform="translate(72.875,176.75)"/>
<path d="M0 0 C2.50267134 2.43667798 3.50779571 4.56150242 4 8 C4 8.99 4 9.98 4 11 C2.741875 10.71125 1.48375 10.4225 0.1875 10.125 C-9.14835222 8.075556 -18.0377697 6.60932691 -27.625 6.625 C-28.6660791 6.62661133 -29.7071582 6.62822266 -30.77978516 6.62988281 C-42.80381415 6.81859661 -53.97951725 9.14869512 -64.921875 14.265625 C-67.43222553 15.15274135 -69.35591429 15.26265752 -72 15 C-72.66 14.34 -73.32 13.68 -74 13 C-74 12.01 -74 11.02 -74 10 C-57.51475019 -5.96190855 -20.61413952 -7.63300659 0 0 Z " fill="#F6F6F7" transform="translate(233,180)"/>
<path d="M0 0 C0.94230469 -0.00386719 1.88460937 -0.00773438 2.85546875 -0.01171875 C5.61484578 -0.00790218 8.36693691 0.04140712 11.125 0.125 C12.41700317 0.16234253 12.41700317 0.16234253 13.73510742 0.20043945 C15.96125776 0.3427535 17.97641152 0.52646464 20.125 1.125 C21.87890625 3.12109375 21.87890625 3.12109375 22.6875 5.5625 C22.97753906 6.36558594 23.26757812 7.16867188 23.56640625 7.99609375 C24.125 10.125 24.125 10.125 24.125 12.125 C23.49045898 11.98497559 22.85591797 11.84495117 22.20214844 11.70068359 C-1.67915446 6.8480509 -24.9819936 9.47858612 -45.875 22.125 C-48.47034823 24.00029735 -50.60707343 25.85707343 -52.875 28.125 C-49.37102631 18.19707455 -42.20383064 11.15725869 -32.9375 6.3125 C-22.17269836 1.34798744 -11.76165775 -0.04787649 0 0 Z " fill="#F2F3F4" transform="translate(204.875,157.875)"/>
<path d="M0 0 C0.99 0.268125 1.98 0.53625 3 0.8125 C13.30394043 3.90368213 23.90111375 9.85167062 30 19 C30 19.99 30 20.98 30 22 C26.78337006 20.85861518 23.93312981 19.40524453 21 17.6875 C7.50402803 10.11002737 -5.75217975 7.64262195 -21.0625 7.75 C-22.72249023 7.73839844 -22.72249023 7.73839844 -24.41601562 7.7265625 C-31.17830861 7.74253957 -37.43225659 8.37495316 -44 10 C-43.49613976 5.66680191 -42.88057657 2.36067267 -40 -1 C-27.65182273 -3.62030287 -12.11957569 -3.41834186 0 0 Z " fill="#F2F3F4" transform="translate(95,160)"/>
<path d="M0 0 C6.27 0 12.54 0 19 0 C19 9.57 19 19.14 19 29 C12.73 29 6.46 29 0 29 C0 19.43 0 9.86 0 0 Z " fill="#489BE4" transform="translate(229,68)"/>
<path d="M0 0 C6.27 0 12.54 0 19 0 C19 9.24 19 18.48 19 28 C12.73 28 6.46 28 0 28 C0 18.76 0 9.52 0 0 Z " fill="#4CA2EE" transform="translate(30,68)"/>
<path d="M0 0 C0.66 0 1.32 0 2 0 C2 10.89 2 21.78 2 33 C6.95 33 11.9 33 17 33 C26.37414418 33.50946436 26.37414418 33.50946436 28.734375 35.359375 C30 37 30 37 30.5 39.9375 C30 43 30 43 27.94604492 45.16259766 C24.3388601 47.41234266 21.48165172 47.54674377 17.36328125 47.4609375 C16.64262985 47.46002106 15.92197845 47.45910461 15.17948914 47.4581604 C13.66410694 47.45214286 12.14873561 47.43645236 10.63354492 47.41162109 C8.30929025 47.37494936 5.98662411 47.37060309 3.66210938 47.37109375 C2.18748617 47.3612678 0.71287378 47.34961307 -0.76171875 47.3359375 C-1.45754562 47.33371185 -2.1533725 47.33148621 -2.87028503 47.32919312 C-7.76778249 47.23221751 -7.76778249 47.23221751 -10 45 C-10.22705078 42.29443359 -10.22705078 42.29443359 -10.1953125 38.8984375 C-10.18886719 37.68671875 -10.18242188 36.475 -10.17578125 35.2265625 C-10.15902344 33.95554688 -10.14226563 32.68453125 -10.125 31.375 C-10.11146484 29.456875 -10.11146484 29.456875 -10.09765625 27.5 C-10.07402303 24.33314833 -10.04107629 21.16666576 -10 18 C-8.22330777 21.06156654 -7.75949182 23.24036215 -7.8046875 26.765625 C-7.81113281 27.65507812 -7.81757812 28.54453125 -7.82421875 29.4609375 C-7.84097656 30.38132813 -7.85773437 31.30171875 -7.875 32.25 C-7.88402344 33.18585938 -7.89304687 34.12171875 -7.90234375 35.0859375 C-7.92586364 37.39088657 -7.95873147 39.6953116 -8 42 C-6.68 42 -5.36 42 -4 42 C-2.18628906 42.24363281 -2.18628906 42.24363281 -0.3359375 42.4921875 C4.24371732 43.09304161 8.76159048 43.14780104 13.375 43.125 C14.18066406 43.12886719 14.98632812 43.13273437 15.81640625 43.13671875 C20.0421789 43.24255012 20.0421789 43.24255012 24 42 C24.65772428 38.97065509 24.65772428 38.97065509 25 36 C24.31373535 35.97494385 23.6274707 35.9498877 22.92041016 35.92407227 C19.82174183 35.80828573 16.72339077 35.68548115 13.625 35.5625 C12.54476562 35.52318359 11.46453125 35.48386719 10.3515625 35.44335938 C9.3203125 35.40146484 8.2890625 35.35957031 7.2265625 35.31640625 C6.27346191 35.27974854 5.32036133 35.24309082 4.33837891 35.20532227 C2 35 2 35 0 34 C0 22.78 0 11.56 0 0 Z " fill="#182A39" transform="translate(567,109)"/>
<path d="M0 0 C3.28288776 0.11320303 4.30354487 1.28284863 6.75 3.5625 C7.86375 4.7690625 7.86375 4.7690625 9 6 C11.62187494 4.95125002 12.79371361 4.35068687 14.25 1.875 C14.4975 1.25625 14.745 0.6375 15 0 C16.9375 0.375 16.9375 0.375 19 1 C20.54897985 4.0979597 19.83239539 7.26216552 19.5625 10.625 C19.51029297 11.33140625 19.45808594 12.0378125 19.40429688 12.765625 C19.27458793 14.51079987 19.13795046 16.25545725 19 18 C17.0625 18.5625 17.0625 18.5625 15 19 C13.03177114 17.03177114 13.33751619 13.65191291 13 11 C12.67 11.66 12.34 12.32 12 13 C11.34 13 10.68 13 10 13 C10 13.66 10 14.32 10 15 C6.125 13.25 6.125 13.25 5 11 C4.67 13.31 4.34 15.62 4 18 C2.34385343 18.38218767 0.67542976 18.71395102 -1 19 C-3.04266429 16.95733571 -2.18507944 12.86308566 -2.1875 10.0625 C-2.19974609 9.32064453 -2.21199219 8.57878906 -2.22460938 7.81445312 C-2.22988478 5.87486371 -2.12188902 3.9357629 -2 2 C-1.34 1.34 -0.68 0.68 0 0 Z " fill="#182A39" transform="translate(272,170)"/>
<path d="M0 0 C3.79450934 0.39253545 5.51015791 2.24338912 8 5 C10.27292941 3.98110061 11.83024561 3.19097369 13.5 1.3125 C13.995 0.879375 14.49 0.44625 15 0 C17.13745922 0.25146579 18.45925779 0.45925779 20 2 C20.12586907 4.2890608 20.17577971 6.58251118 20.1875 8.875 C20.20167969 10.13054687 20.21585938 11.38609375 20.23046875 12.6796875 C20 16 20 16 18 19 C16.68 18.34 15.36 17.68 14 17 C14 15.02 14 13.04 14 11 C12.68 12.32 11.36 13.64 10 15 C6.125 13.25 6.125 13.25 5 11 C4.67 13.31 4.34 15.62 4 18 C2.68 18.33 1.36 18.66 0 19 C-1.58696844 15.82606311 -1.1431447 12.41825795 -1.125 8.9375 C-1.12886719 8.19177734 -1.13273438 7.44605469 -1.13671875 6.67773438 C-1.12663501 1.12663501 -1.12663501 1.12663501 0 0 Z " fill="#1D303F" transform="translate(576,170)"/>
<path d="M0 0 C2.81296623 1.40648311 4.5330209 2.98807877 6.625 5.3125 C7.01171875 4.86777344 7.3984375 4.42304688 7.796875 3.96484375 C8.31765625 3.39894531 8.8384375 2.83304688 9.375 2.25 C9.88546875 1.68152344 10.3959375 1.11304688 10.921875 0.52734375 C11.76492188 -0.07400391 11.76492188 -0.07400391 12.625 -0.6875 C13.945 -0.3575 15.265 -0.0275 16.625 0.3125 C16.625 5.9225 16.625 11.5325 16.625 17.3125 C15.305 17.6425 13.985 17.9725 12.625 18.3125 C11.965 15.6725 11.305 13.0325 10.625 10.3125 C9.305 11.6325 7.985 12.9525 6.625 14.3125 C4.975 12.9925 3.325 11.6725 1.625 10.3125 C1.295 12.6225 0.965 14.9325 0.625 17.3125 C-0.695 17.3125 -2.015 17.3125 -3.375 17.3125 C-4.375 16.3125 -4.375 16.3125 -4.47265625 12.71484375 C-4.4659822 11.22653133 -4.45402183 9.73823568 -4.4375 8.25 C-4.43298828 7.49138672 -4.42847656 6.73277344 -4.42382812 5.95117188 C-4.4120068 4.07158129 -4.39407078 2.19203101 -4.375 0.3125 C-2.375 -0.6875 -2.375 -0.6875 0 0 Z " fill="#1B2D3C" transform="translate(386.375,170.6875)"/>
<path d="M0 0 C1.65 0.33 3.3 0.66 5 1 C5.33 1.99 5.66 2.98 6 4 C6.99 4.33 7.98 4.66 9 5 C9 5.66 9 6.32 9 7 C9.66 6.67 10.32 6.34 11 6 C11.65772428 2.97065509 11.65772428 2.97065509 12 0 C13.65 0.33 15.3 0.66 17 1 C17 6.28 17 11.56 17 17 C15.02 17.99 15.02 17.99 13 19 C10.69 16.69 8.38 14.38 6 12 C5.34 14.31 4.68 16.62 4 19 C2.68 19 1.36 19 0 19 C-1.51714839 15.96570323 -1.14363916 12.82398333 -1.125 9.5 C-1.12886719 8.81035156 -1.13273437 8.12070313 -1.13671875 7.41015625 C-1.12666646 2.25333293 -1.12666646 2.25333293 0 0 Z " fill="#1B2D3B" transform="translate(318,170)"/>
<path d="M0 0 C0.99 0.66 1.98 1.32 3 2 C2.67 3.32 2.34 4.64 2 6 C2.99 6.66 3.98 7.32 5 8 C5.77821012 15.00389105 5.77821012 15.00389105 3.4375 18 C0.0739584 19.3799145 -2.39238959 19.37974846 -6 19 C-9.5386994 17.34860695 -10.81070153 16.28394771 -13 13 C-13.30104004 8.86069947 -13.54000454 5.42900613 -11 2 C-7.57099387 -0.54000454 -4.13930053 -0.30104004 0 0 Z M-6.875 6.125 C-8.27409643 8.02467776 -8.27409643 8.02467776 -7.6875 10.6875 C-7.460625 11.450625 -7.23375 12.21375 -7 13 C-6.01 12.67 -5.02 12.34 -4 12 C-4 10.68 -4 9.36 -4 8 C-2.68 7.34 -1.36 6.68 0 6 C-3.54966644 4.86559731 -3.54966644 4.86559731 -6.875 6.125 Z " fill="#1F3343" transform="translate(372,170)"/>
<path d="M0 0 C2.912575 0.08566397 4.56798024 0.57910955 6.66796875 2.625 C8.16091772 4.38391375 9.60436262 6.16313019 11 8 C11.33 5.36 11.66 2.72 12 0 C15.875 0.875 15.875 0.875 17 2 C17.09997642 4.49058914 17.13879627 6.94727395 17.125 9.4375 C17.13080078 10.47874023 17.13080078 10.47874023 17.13671875 11.54101562 C17.12663994 16.74672012 17.12663994 16.74672012 16 19 C12.64749299 18.42424336 11.06181371 17.40693737 8.75 14.9375 C8.22921875 14.38964844 7.7084375 13.84179688 7.171875 13.27734375 C6.78515625 12.85582031 6.3984375 12.43429688 6 12 C5.01 14.31 4.02 16.62 3 19 C2.01 18.67 1.02 18.34 0 18 C-1.48619895 15.02760209 -1.13177009 12.30380422 -1.125 9 C-1.12757813 7.741875 -1.13015625 6.48375 -1.1328125 5.1875 C-1 2 -1 2 0 0 Z " fill="#1A2C3D" transform="translate(432,170)"/>
<path d="M0 0 C1.79244141 0.01740234 1.79244141 0.01740234 3.62109375 0.03515625 C5.41740234 0.04869141 5.41740234 0.04869141 7.25 0.0625 C8.17683594 0.07410156 9.10367188 0.08570313 10.05859375 0.09765625 C10.38859375 1.74765625 10.71859375 3.39765625 11.05859375 5.09765625 C7.75859375 5.09765625 4.45859375 5.09765625 1.05859375 5.09765625 C1.05859375 5.75765625 1.05859375 6.41765625 1.05859375 7.09765625 C3.36859375 7.09765625 5.67859375 7.09765625 8.05859375 7.09765625 C8.62109375 9.03515625 8.62109375 9.03515625 9.05859375 11.09765625 C8.05859375 12.09765625 8.05859375 12.09765625 4.49609375 12.16015625 C3.36171875 12.13953125 2.22734375 12.11890625 1.05859375 12.09765625 C1.05859375 12.75765625 1.05859375 13.41765625 1.05859375 14.09765625 C4.35859375 14.09765625 7.65859375 14.09765625 11.05859375 14.09765625 C10.72859375 15.74765625 10.39859375 17.39765625 10.05859375 19.09765625 C7.91282738 19.12451563 5.7669673 19.14398713 3.62109375 19.16015625 C2.42613281 19.17175781 1.23117187 19.18335938 0 19.1953125 C-2.94140625 19.09765625 -2.94140625 19.09765625 -3.94140625 18.09765625 C-4.041276 15.25430577 -4.08018506 12.44068462 -4.06640625 9.59765625 C-4.07027344 8.79972656 -4.07414063 8.00179687 -4.078125 7.1796875 C-4.06616458 0.13499882 -4.06616458 0.13499882 0 0 Z " fill="#1C2F3F" transform="translate(558.94140625,169.90234375)"/>
<path d="M0 0 C1.79244141 0.01740234 1.79244141 0.01740234 3.62109375 0.03515625 C5.41740234 0.04869141 5.41740234 0.04869141 7.25 0.0625 C8.17683594 0.07410156 9.10367187 0.08570313 10.05859375 0.09765625 C10.62109375 2.03515625 10.62109375 2.03515625 11.05859375 4.09765625 C10.05859375 5.09765625 10.05859375 5.09765625 7.9921875 5.1953125 C7.16847656 5.18371094 6.34476562 5.17210937 5.49609375 5.16015625 C4.66980469 5.15113281 3.84351563 5.14210937 2.9921875 5.1328125 C2.35410156 5.12121094 1.71601563 5.10960937 1.05859375 5.09765625 C1.05859375 5.75765625 1.05859375 6.41765625 1.05859375 7.09765625 C3.36859375 7.09765625 5.67859375 7.09765625 8.05859375 7.09765625 C8.05859375 8.74765625 8.05859375 10.39765625 8.05859375 12.09765625 C5.74859375 12.09765625 3.43859375 12.09765625 1.05859375 12.09765625 C1.05859375 12.75765625 1.05859375 13.41765625 1.05859375 14.09765625 C4.35859375 14.09765625 7.65859375 14.09765625 11.05859375 14.09765625 C10.72859375 15.74765625 10.39859375 17.39765625 10.05859375 19.09765625 C7.91282738 19.12451563 5.7669673 19.14398713 3.62109375 19.16015625 C2.42613281 19.17175781 1.23117187 19.18335938 0 19.1953125 C-2.94140625 19.09765625 -2.94140625 19.09765625 -3.94140625 18.09765625 C-4.041276 15.25430577 -4.08018506 12.44068462 -4.06640625 9.59765625 C-4.07027344 8.79972656 -4.07414062 8.00179687 -4.078125 7.1796875 C-4.06616458 0.13499882 -4.06616458 0.13499882 0 0 Z " fill="#233748" transform="translate(414.94140625,169.90234375)"/>
<path d="M0 0 C3.15811466 0.0553173 4.47098237 0.18575797 7.25 1.8125 C9.41409573 5.57614476 9.16743784 7.99305941 8.6875 12.3125 C7.14411909 14.48726401 6.05084727 15.13082637 3.6875 16.3125 C0.875 16.6875 0.875 16.6875 -2.3125 16.3125 C-4.95506316 14.19844948 -6.75784147 12.3871509 -8.3125 9.375 C-8.3125 3.48483925 -5.48551376 0.17058062 0 0 Z " fill="#0D1E2D" transform="translate(138.3125,65.6875)"/>
<path d="M0 0 C0.99 0.66 1.98 1.32 3 2 C2.49396008 4.16874252 2.00016187 5.99967627 1 8 C1.515625 8.37125 2.03125 8.7425 2.5625 9.125 C4 11 4 11 3.875 14.0625 C3 17 3 17 0 19 C-3.70709258 19.33700842 -6.12719529 19.46997177 -9.4375 17.6875 C-11 16 -11 16 -11 13 C-10.34 12.34 -9.68 11.68 -9 11 C-9.66 10.34 -10.32 9.68 -11 9 C-11.375 6.0625 -11.375 6.0625 -11 3 C-7.92792827 -0.68648607 -4.54868482 -0.4135168 0 0 Z M-5 5 C-5 5.66 -5 6.32 -5 7 C-3.68 6.67 -2.36 6.34 -1 6 C-2.32 5.67 -3.64 5.34 -5 5 Z M-7 12 C-6.34 12.66 -5.68 13.32 -5 14 C-4.01 13.67 -3.02 13.34 -2 13 C-3.65 12.67 -5.3 12.34 -7 12 Z " fill="#192B3A" transform="translate(492,170)"/>
<path d="M0 0 C2.3515625 0.046875 2.3515625 0.046875 5 1 C6.8359375 3.765625 6.8359375 3.765625 8.375 7.25 C9.16003906 8.95929688 9.16003906 8.95929688 9.9609375 10.703125 C11.02577574 14.08178467 11.06164561 15.67767375 10 19 C6.125 18.125 6.125 18.125 5 17 C2.67182036 16.63239269 0.3381615 16.29758419 -2 16 C-2 16.66 -2 17.32 -2 18 C-3.9375 18.5625 -3.9375 18.5625 -6 19 C-6.33 18.67 -6.66 18.34 -7 18 C-6.73852905 11.85543265 -4.45455161 4.45455161 0 0 Z M1 8 C0.67 8.99 0.34 9.98 0 11 C0.99 11 1.98 11 3 11 C2.67 10.01 2.34 9.02 2 8 C1.67 8 1.34 8 1 8 Z " fill="#1B2D3C" transform="translate(346,170)"/>
<path d="M0 0 C3.67968538 1.62339061 4.52060002 4.37410173 5.8984375 7.92578125 C6.17042969 8.55548828 6.44242187 9.18519531 6.72265625 9.83398438 C7.84240834 12.5701991 8.59396973 14.5990521 8.1875 17.5625 C7.96835937 18.07425781 7.74921875 18.58601563 7.5234375 19.11328125 C6.2034375 18.78328125 4.8834375 18.45328125 3.5234375 18.11328125 C3.5234375 17.45328125 3.5234375 16.79328125 3.5234375 16.11328125 C-2.06156817 16.31226833 -2.06156817 16.31226833 -6.4765625 19.11328125 C-7.4665625 19.11328125 -8.4565625 19.11328125 -9.4765625 19.11328125 C-10.80779653 15.11957915 -9.74614121 13.49082693 -8.2265625 9.61328125 C-7.78828125 8.46859375 -7.35 7.32390625 -6.8984375 6.14453125 C-4.10427007 0.18773475 -4.10427007 0.18773475 0 0 Z M-1.4765625 8.11328125 C-1.8065625 9.10328125 -2.1365625 10.09328125 -2.4765625 11.11328125 C-1.4865625 11.11328125 -0.4965625 11.11328125 0.5234375 11.11328125 C0.1934375 10.12328125 -0.1365625 9.13328125 -0.4765625 8.11328125 C-0.8065625 8.11328125 -1.1365625 8.11328125 -1.4765625 8.11328125 Z " fill="#172836" transform="translate(305.4765625,169.88671875)"/>
<path d="M0 0 C0.99 0.66 1.98 1.32 3 2 C2.835 2.61875 2.67 3.2375 2.5 3.875 C1.92365356 5.96063386 1.92365356 5.96063386 2 8 C2.66 8.66 3.32 9.32 4 10 C4.5579096 15.24435028 4.5579096 15.24435028 2.765625 17.671875 C0.51809011 19.36249859 -0.77616909 19.3721743 -3.5625 19.3125 C-4.34753906 19.30863281 -5.13257813 19.30476563 -5.94140625 19.30078125 C-8 19 -8 19 -10 17 C-10 15.68 -10 14.36 -10 13 C-7.36 13 -4.72 13 -2 13 C-3.11375 12.54625 -4.2275 12.0925 -5.375 11.625 C-9 10 -9 10 -11 8 C-10.84285399 4.93565274 -10.41646074 3.44730969 -8.3125 1.1875 C-5.33010093 -0.34400223 -3.31309774 -0.35245721 0 0 Z M-5 5 C-4.67 5.66 -4.34 6.32 -4 7 C-2.68 6.67 -1.36 6.34 0 6 C-1.65 5.67 -3.3 5.34 -5 5 Z " fill="#1E3141" transform="translate(528,170)"/>
<path d="M0 0 C4.95 0 9.9 0 15 0 C15 0.33 15 0.66 15 1 C10.38 1 5.76 1 1 1 C1 6.28 1 11.56 1 17 C1.66 17 2.32 17 3 17 C3 17.99 3 18.98 3 20 C6.63 20 10.26 20 14 20 C14.33 18.68 14.66 17.36 15 16 C15.66 16 16.32 16 17 16 C16.67 10.72 16.34 5.44 16 0 C16.66 0 17.32 0 18 0 C18 8.91 18 17.82 18 27 C12.06 27 6.12 27 0 27 C0 18.09 0 9.18 0 0 Z " fill="#54AAF6" transform="translate(31,69)"/>
<path d="M0 0 C5.61 0 11.22 0 17 0 C16.67 1.32 16.34 2.64 16 4 C16 3.01 16 2.02 16 1 C11.05 1 6.1 1 1 1 C1 5.95 1 10.9 1 16 C1.66 16 2.32 16 3 16 C3 17.32 3 18.64 3 20 C6.96 20 10.92 20 15 20 C15 18.68 15 17.36 15 16 C15.66 16 16.32 16 17 16 C17 19.63 17 23.26 17 27 C11.39 27 5.78 27 0 27 C0 18.09 0 9.18 0 0 Z " fill="#53AAF7" transform="translate(230,69)"/>
<path d="M0 0 C1.65 0.33 3.3 0.66 5 1 C5.33 1.99 5.66 2.98 6 4 C7.32 4 8.64 4 10 4 C10.66 3.319375 11.32 2.63875 12 1.9375 C12.66 1.298125 13.32 0.65875 14 0 C16.25 0.25 16.25 0.25 18 1 C17.05341663 3.62130781 16.23221815 5.72133822 14.4375 7.875 C12.47150884 10.7812478 12.44582742 13.5607599 12 17 C11.34 17.66 10.68 18.32 10 19 C7.875 18.625 7.875 18.625 6 18 C6 15.36 6 12.72 6 10 C5.34 10 4.68 10 4 10 C2.67578125 8.57421875 2.67578125 8.57421875 1.3125 6.6875 C0.85488281 6.07261719 0.39726562 5.45773438 -0.07421875 4.82421875 C-0.53248047 3.92123047 -0.53248047 3.92123047 -1 3 C-0.67 2.01 -0.34 1.02 0 0 Z " fill="#1C2E3C" transform="translate(498,170)"/>
<path d="M0 0 C1.39456452 0.00667256 2.78911118 0.01863093 4.18359375 0.03515625 C4.89451172 0.03966797 5.60542969 0.04417969 6.33789062 0.04882812 C8.09899388 0.06064761 9.86005411 0.07858362 11.62109375 0.09765625 C11.95109375 1.74765625 12.28109375 3.39765625 12.62109375 5.09765625 C10.97109375 5.09765625 9.32109375 5.09765625 7.62109375 5.09765625 C7.64429688 5.94070312 7.6675 6.78375 7.69140625 7.65234375 C7.71847656 9.29589844 7.71847656 9.29589844 7.74609375 10.97265625 C7.76929688 12.06320313 7.7925 13.15375 7.81640625 14.27734375 C7.62109375 17.09765625 7.62109375 17.09765625 5.62109375 19.09765625 C4.30109375 18.76765625 2.98109375 18.43765625 1.62109375 18.09765625 C1.62109375 13.80765625 1.62109375 9.51765625 1.62109375 5.09765625 C-0.02890625 5.09765625 -1.67890625 5.09765625 -3.37890625 5.09765625 C-3.94140625 3.16015625 -3.94140625 3.16015625 -4.37890625 1.09765625 C-3.37890625 0.09765625 -3.37890625 0.09765625 0 0 Z " fill="#1C2F3E" transform="translate(538.37890625,169.90234375)"/>
<path d="M0 0 C1.18851562 0.00902344 2.37703125 0.01804688 3.6015625 0.02734375 C4.51679688 0.03894531 5.43203125 0.05054688 6.375 0.0625 C6.705 1.7125 7.035 3.3625 7.375 5.0625 C5.725 5.3925 4.075 5.7225 2.375 6.0625 C2.045 10.0225 1.715 13.9825 1.375 18.0625 C0.055 18.0625 -1.265 18.0625 -2.625 18.0625 C-3.94729189 15.41791621 -3.72177194 13.38488699 -3.6875 10.4375 C-3.67847656 9.43460938 -3.66945313 8.43171875 -3.66015625 7.3984375 C-3.64275391 6.24214844 -3.64275391 6.24214844 -3.625 5.0625 C-5.275 5.0625 -6.925 5.0625 -8.625 5.0625 C-8.625 3.7425 -8.625 2.4225 -8.625 1.0625 C-5.74084117 -0.37957941 -3.20778472 -0.03144887 0 0 Z " fill="#203344" transform="translate(460.625,169.9375)"/>
<path d="M0 0 C1.65 0 3.3 0 5 0 C4.02391783 2.92824652 2.89213369 4.61426621 1 7 C1.99 7.33 2.98 7.66 4 8 C4.33 8.99 4.66 9.98 5 11 C5.33 10.34 5.66 9.68 6 9 C8.32156597 8.59270772 10.6568787 8.25561323 13 8 C12.34 9.98 11.68 11.96 11 14 C9.68 13.67 8.36 13.34 7 13 C7 13.99 7 14.98 7 16 C2.75519536 16.33292585 0.64457375 16.43885872 -2.9375 14 C-3.618125 13.34 -4.29875 12.68 -5 12 C-4.46231128 8.1286412 -3.422527 6.02815875 -1 3 C-0.67 2.01 -0.34 1.02 0 0 Z " fill="#4B94D5" transform="translate(67,122)"/>
<path d="M0 0 C0.66 0 1.32 0 2 0 C2 10.89 2 21.78 2 33 C6.95 33 11.9 33 17 33 C26.35863687 33.50862157 26.35863687 33.50862157 28.75390625 35.34375 C30.61811229 37.82156617 30.20013326 39.99800108 30 43 C27.53721199 40.53721199 27.00228745 38.29323018 26 35 C24.92516357 35.00785522 24.92516357 35.00785522 23.82861328 35.01586914 C20.59408438 35.03660667 17.35956944 35.04964984 14.125 35.0625 C12.43310547 35.07506836 12.43310547 35.07506836 10.70703125 35.08789062 C9.63066406 35.09111328 8.55429687 35.09433594 7.4453125 35.09765625 C6.45031738 35.10289307 5.45532227 35.10812988 4.43017578 35.11352539 C2 35 2 35 0 34 C0 22.78 0 11.56 0 0 Z " fill="#243848" transform="translate(567,109)"/>
<path d="M0 0 C0.66 0 1.32 0 2 0 C2.4125 0.804375 2.825 1.60875 3.25 2.4375 C4.80803511 5.32499092 4.80803511 5.32499092 8.1875 5.8125 C9.5796875 5.9053125 9.5796875 5.9053125 11 6 C11.66 5.01 12.32 4.02 13 3 C11.35 3 9.7 3 8 3 C8.33 2.01 8.66 1.02 9 0 C11.64 0 14.28 0 17 0 C17.48396854 7.38052027 17.48396854 7.38052027 15.4375 10 C11.10576879 11.7771205 7.50211077 11.52247331 3.125 10 C-0.09255471 6.97171321 0.2133508 4.33813285 0 0 Z " fill="#192B39" transform="translate(360,178)"/>
<path d="M0 0 C1.32 0 2.64 0 4 0 C3.50387003 8.10345611 0.679915 15.40525933 -2 23 C-2.33 23 -2.66 23 -3 23 C-3.08107583 21.06318839 -3.13922475 19.1254066 -3.1875 17.1875 C-3.23970703 15.56908203 -3.23970703 15.56908203 -3.29296875 13.91796875 C-3 11 -3 11 -1.48828125 9.11328125 C-0.99714844 8.74589844 -0.50601563 8.37851563 0 8 C-3.87797662 7.56613908 -3.87797662 7.56613908 -5.75 9.5 C-6.1625 9.995 -6.575 10.49 -7 11 C-7 10.34 -7 9.68 -7 9 C-7.598125 9.495 -8.19625 9.99 -8.8125 10.5 C-11 12 -11 12 -14 12 C-12.69334867 8.080046 -11.05578034 7.54073641 -7.5625 5.4375 C-3.53872741 3.02809453 -3.53872741 3.02809453 0 0 Z " fill="#4B91CF" transform="translate(98,90)"/>
<path d="M0 0 C1.0828125 0.7115625 1.0828125 0.7115625 2.1875 1.4375 C4.89475226 2.94152903 6.96194275 3.56599182 10 4 C10 4.33 10 4.66 10 5 C6.7 4.67 3.4 4.34 0 4 C-0.33 5.32 -0.66 6.64 -1 8 C-0.04915527 8.02187378 -0.04915527 8.02187378 0.92089844 8.04418945 C24.17916857 8.64190925 24.17916857 8.64190925 34 12 C30.15349976 13.38474009 26.97835389 12.57686775 23 12 C20.73223705 11.86162747 18.46220566 11.75684534 16.19140625 11.68359375 C14.95068359 11.64169922 13.70996094 11.59980469 12.43164062 11.55664062 C11.15482422 11.51732422 9.87800781 11.47800781 8.5625 11.4375 C7.25861328 11.39431641 5.95472656 11.35113281 4.61132812 11.30664062 C1.40764684 11.20102476 -1.79610611 11.09891899 -5 11 C-4.43254765 5.88098246 -4.10697736 3.31207852 0 0 Z " fill="#4E96D4" transform="translate(62,134)"/>
<path d="M0 0 C1.32 0.33 2.64 0.66 4 1 C4 2.98 4 4.96 4 7 C6.31 7 8.62 7 11 7 C11 7.99 11 8.98 11 10 C8.69 10 6.38 10 4 10 C4 11.32 4 12.64 4 14 C7.3 14 10.6 14 14 14 C14 14.66 14 15.32 14 16 C9.38 16.33 4.76 16.66 0 17 C0 11.39 0 5.78 0 0 Z " fill="#142533" transform="translate(411,171)"/>
<path d="M0 0 C0.66 0 1.32 0 2 0 C2 1.65 2 3.3 2 5 C5.465 4.505 5.465 4.505 9 4 C9 4.99 9 5.98 9 7 C7.02 7 5.04 7 3 7 C3 7.99 3 8.98 3 10 C6.3 10 9.6 10 13 10 C13 11.32 13 12.64 13 14 C8.71 14 4.42 14 0 14 C-1.31164842 11.37670316 -1.13262846 9.36301375 -1.125 6.4375 C-1.12757813 5.44621094 -1.13015625 4.45492187 -1.1328125 3.43359375 C-1 1 -1 1 0 0 Z " fill="#152633" transform="translate(557,174)"/>
<path d="M0 0 C3.24067792 0.43209039 5.00380674 1.40494876 7 4 C7 4.99 7 5.98 7 7 C8.32 7.66 9.64 8.32 11 9 C8.6875 9.625 8.6875 9.625 6 10 C5.01 9.34 4.02 8.68 3 8 C3 10.97 3 13.94 3 17 C1.68 17 0.36 17 -1 17 C-1.02684679 14.35409986 -1.04676357 11.70846904 -1.0625 9.0625 C-1.07087891 8.30775391 -1.07925781 7.55300781 -1.08789062 6.77539062 C-1.09652441 4.85005687 -1.05224333 2.92464419 -1 1 C-0.67 0.67 -0.34 0.34 0 0 Z " fill="#10202D" transform="translate(576,170)"/>
<path d="M0 0 C-1.32 0.33 -2.64 0.66 -4 1 C-4 1.99 -4 2.98 -4 4 C-5.32 4.33 -6.64 4.66 -8 5 C-6.71711243 7.55503957 -6.71711243 7.55503957 -5 10 C-4.01 10 -3.02 10 -2 10 C-2 10.66 -2 11.32 -2 12 C-1.34 12 -0.68 12 0 12 C0.33 11.34 0.66 10.68 1 10 C2.37562854 11.28965176 3.70766393 12.62689293 5 14 C5 14.66 5 15.32 5 16 C8.96 16 12.92 16 17 16 C17 16.33 17 16.66 17 17 C7.5651074 17.82174871 -0.26898148 16.89090833 -8 11 C-9.38671875 8.4375 -9.38671875 8.4375 -10 6 C-9.125 3.6875 -9.125 3.6875 -8 2 C-7.34 2 -6.68 2 -6 2 C-6 1.34 -6 0.68 -6 0 C-3.50907189 -1.24546405 -2.58919267 -0.7767578 0 0 Z " fill="#1E3141" transform="translate(282,139)"/>
<path d="M0 0 C2.64 0 5.28 0 8 0 C9.50156874 3.00313748 9.09281204 5.79067522 9.0625 9.125 C9.05347656 10.40632812 9.04445313 11.68765625 9.03515625 13.0078125 C9.02355469 13.99523437 9.01195312 14.98265625 9 16 C7.68 16 6.36 16 5 16 C5 11.38 5 6.76 5 2 C3.35 2 1.7 2 0 2 C0 1.34 0 0.68 0 0 Z " fill="#132431" transform="translate(453,172)"/>
<path d="M0 0 C0.66 0.33 1.32 0.66 2 1 C1.34 2.65 0.68 4.3 0 6 C-0.66 6 -1.32 6 -2 6 C-2 8.97 -2 11.94 -2 15 C-1.34 15.33 -0.68 15.66 0 16 C1.57548683 18.62581138 2 19.87099787 2 23 C-0.6245228 22.00449135 -1.95028727 21.06036546 -3.75 18.875 C-5.36010636 15.17175538 -5.69971731 11.93777084 -5 8 C-3.75411202 5.07609171 -2.27174216 2.27174216 0 0 Z " fill="#1E3040" transform="translate(278,109)"/>
<path d="M0 0 C0.33 0.66 0.66 1.32 1 2 C1.99 2 2.98 2 4 2 C4.6875 4.3125 4.6875 4.3125 5 7 C4 8.75 4 8.75 2 10 C-1.6875 10.6875 -1.6875 10.6875 -5 11 C-3.77472971 6.94718288 -2.30119506 3.55639236 0 0 Z " fill="#102940" transform="translate(213,127)"/>
<path d="M0 0 C0.33 0.99 0.66 1.98 1 3 C1.66 3 2.32 3 3 3 C4.32 5.64 5.64 8.28 7 11 C0.64 10.4 0.64 10.4 -2 8.75 C-3 7 -3 7 -2.8125 4.4375 C-2 2 -2 2 0 0 Z " fill="#12293E" transform="translate(65,127)"/>
<path d="M0 0 C4 2 4 2 4.875 4 C4.936875 4.99 4.936875 4.99 5 6 C4.34 6.66 3.68 7.32 3 8 C2.75746187 10.21072977 2.75746187 10.21072977 2.875 12.625 C2.89304687 13.44226563 2.91109375 14.25953125 2.9296875 15.1015625 C2.95289063 15.72804687 2.97609375 16.35453125 3 17 C2.01 17.33 1.02 17.66 0 18 C0 12.06 0 6.12 0 0 Z " fill="#122436" transform="translate(433,171)"/>
<path d="M0 0 C1.24523437 0.02707031 2.49046875 0.05414063 3.7734375 0.08203125 C4.71445312 0.11683594 5.65546875 0.15164062 6.625 0.1875 C3.12691738 2.51955508 1.71605875 2.27099099 -2.375 2.1875 C-4.61740782 2.47489925 -4.61740782 2.47489925 -6.375 3.1875 C-6.705 3.8475 -7.035 4.5075 -7.375 5.1875 C-7.375 4.5275 -7.375 3.8675 -7.375 3.1875 C-8.365 3.1875 -9.355 3.1875 -10.375 3.1875 C-10.375 3.8475 -10.375 4.5075 -10.375 5.1875 C-11.035 5.1875 -11.695 5.1875 -12.375 5.1875 C-12.705 6.1775 -13.035 7.1675 -13.375 8.1875 C-15.025 8.1875 -16.675 8.1875 -18.375 8.1875 C-12.7661209 2.0837198 -8.34570044 -0.23619907 0 0 Z " fill="#203242" transform="translate(347.375,104.8125)"/>
<path d="M0 0 C1.32 0 2.64 0 4 0 C3.50387003 8.10345611 0.679915 15.40525933 -2 23 C-2.33 23 -2.66 23 -3 23 C-3.08107583 21.06318839 -3.13922475 19.1254066 -3.1875 17.1875 C-3.22230469 16.10855469 -3.25710937 15.02960938 -3.29296875 13.91796875 C-2.96123586 10.61390916 -2.45023668 10.05819881 0 8 C1.20049407 4.89992799 1.20049407 4.89992799 2 2 C0.68 2.33 -0.64 2.66 -2 3 C-1.34 2.01 -0.68 1.02 0 0 Z " fill="#4883B7" transform="translate(98,90)"/>
<path d="M0 0 C4.55700425 0.52484692 7.192874 2.31507303 10.8125 5.0625 C11.78832031 5.79597656 12.76414063 6.52945313 13.76953125 7.28515625 C14.87361328 8.13400391 14.87361328 8.13400391 16 9 C15.01 9.495 15.01 9.495 14 10 C11 9 11 9 9.625 7.5 C7.53081119 5.56690264 5.77849308 5.37547204 3 5 C2.67 5.99 2.34 6.98 2 8 C0.74335022 5.09399739 0 3.20395416 0 0 Z " fill="#4884B8" transform="translate(177,90)"/>
<path d="M0 0 C2.76276177 0.52268466 5.3260876 1.10869587 8 2 C8 3.98 8 5.96 8 8 C5.69 8.66 3.38 9.32 1 10 C1 9.34 1 8.68 1 8 C0.34 7.67 -0.32 7.34 -1 7 C0.65 7 2.3 7 4 7 C4 5.68 4 4.36 4 3 C2.68 3 1.36 3 0 3 C0 2.01 0 1.02 0 0 Z " fill="#182936" transform="translate(524,178)"/>
<path d="M0 0 C4.29 0 8.58 0 13 0 C13.33 1.32 13.66 2.64 14 4 C12.23050905 4.10815225 10.45912513 4.18566083 8.6875 4.25 C7.70136719 4.29640625 6.71523438 4.3428125 5.69921875 4.390625 C3 4 3 4 0 0 Z " fill="#1B2E3F" transform="translate(412,170)"/>
<path d="M0 0 C1.9375 0.6875 1.9375 0.6875 4 2 C4.75 4.625 4.75 4.625 5 7 C4.4225 7.12375 3.845 7.2475 3.25 7.375 C0.97387794 8.00725613 -0.90760206 8.91863468 -3 10 C-2.69201674 8.51988629 -2.378482 7.04092675 -2.0625 5.5625 C-1.88847656 4.73878906 -1.71445312 3.91507813 -1.53515625 3.06640625 C-1 1 -1 1 0 0 Z " fill="#152532" transform="translate(346,170)"/>
<path d="M0 0 C1.32 0 2.64 0 4 0 C4 4.62 4 9.24 4 14 C3.01 14 2.02 14 1 14 C0.77825067 12.54364629 0.57301302 11.08477044 0.375 9.625 C0.25898438 8.81289062 0.14296875 8.00078125 0.0234375 7.1640625 C0.01570313 6.44992188 0.00796875 5.73578125 0 5 C0.66 4.34 1.32 3.68 2 3 C1.34 2.67 0.68 2.34 0 2 C0 1.34 0 0.68 0 0 Z " fill="#142534" transform="translate(398,172)"/>
<path d="M0 0 C0.33 0 0.66 0 1 0 C1.33 4.95 1.66 9.9 2 15 C2.66 14.67 3.32 14.34 4 14 C4 11.36 4 8.72 4 6 C4.66 6 5.32 6 6 6 C6 9.3 6 12.6 6 16 C4.35 16.33 2.7 16.66 1 17 C-0.53266582 13.93466836 -0.10276471 10.73245728 -0.0625 7.375 C-0.05798828 6.66859375 -0.05347656 5.9621875 -0.04882812 5.234375 C-0.03703875 3.48954725 -0.01910324 1.744763 0 0 Z " fill="#25384A" transform="translate(317,172)"/>
<path d="M0 0 C1.32 0.33 2.64 0.66 4 1 C4 6.61 4 12.22 4 18 C2.68 18.33 1.36 18.66 0 19 C-0.66 15.7 -1.32 12.4 -2 9 C-1.34 8.67 -0.68 8.34 0 8 C0.33 10.64 0.66 13.28 1 16 C1.33 16 1.66 16 2 16 C2.33 11.38 2.66 6.76 3 2 C1.68 1.67 0.36 1.34 -1 1 C-0.67 0.67 -0.34 0.34 0 0 Z " fill="#213545" transform="translate(399,170)"/>
<path d="M0 0 C2.97 0.495 2.97 0.495 6 1 C6.6875 2.8125 6.6875 2.8125 7 5 C6 6.8125 6 6.8125 4 8 C0.3125 7.6875 0.3125 7.6875 -3 7 C-2.67 5.68 -2.34 4.36 -2 3 C0.33333333 3 2.66666667 3 5 3 C2.525 2.01 2.525 2.01 0 1 C0 0.67 0 0.34 0 0 Z M-1 5 C-1 5.66 -1 6.32 -1 7 C0.32 6.67 1.64 6.34 3 6 C1.68 5.67 0.36 5.34 -1 5 Z " fill="#213444" transform="translate(488,170)"/>
<path d="M0 0 C1.9451 2.91765 2.45276317 4.62537285 3 8 C1.68 8.33 0.36 8.66 -1 9 C-1.33 8.01 -1.66 7.02 -2 6 C-7.1693489 6.40556131 -7.1693489 6.40556131 -12 8 C-11.67 7.01 -11.34 6.02 -11 5 C-7.7 4.67 -4.4 4.34 -1 4 C-0.67 2.68 -0.34 1.36 0 0 Z " fill="#213546" transform="translate(311,180)"/>
<path d="M0 0 C3.0625 0.25 3.0625 0.25 6.0625 2.25 C5.7325 3.57 5.4025 4.89 5.0625 6.25 C4.0725 6.25 3.0825 6.25 2.0625 6.25 C0.39150023 6.56088368 -1.27621537 6.89080332 -2.9375 7.25 C-2.6075 5.93 -2.2775 4.61 -1.9375 3.25 C-0.6175 2.92 0.7025 2.59 2.0625 2.25 C-0.2475 2.25 -2.5575 2.25 -4.9375 2.25 C-2.9375 0.25 -2.9375 0.25 0 0 Z " fill="#213444" transform="translate(524.9375,169.75)"/>
<path d="M0 0 C1.9375 0.375 1.9375 0.375 4 1 C5.54897985 4.0979597 4.83239539 7.26216552 4.5625 10.625 C4.51029297 11.33140625 4.45808594 12.0378125 4.40429688 12.765625 C4.27458793 14.51079987 4.13795046 16.25545725 4 18 C3.67 18 3.34 18 3 18 C2.67 13.38 2.34 8.76 2 4 C0.02 4.99 0.02 4.99 -2 6 C-2.99 6.33 -3.98 6.66 -5 7 C-4.67 6.01 -4.34 5.02 -4 4 C-3.34 4 -2.68 4 -2 4 C-1.34 2.68 -0.68 1.36 0 0 Z " fill="#243643" transform="translate(287,170)"/>
<path d="M0 0 C1.65 0 3.3 0 5 0 C5 1.32 5 2.64 5 4 C4.01 4 3.02 4 2 4 C2.33 4.66 2.66 5.32 3 6 C3.04022391 8.3329866 3.04320247 10.66706666 3 13 C-0.01111938 8.48332093 -0.10067926 5.3360009 0 0 Z " fill="#4B91CF" transform="translate(180,95)"/>
<path d="M0 0 C0 2.31 0 4.62 0 7 C-1.9375 7.5625 -1.9375 7.5625 -4 8 C-5 7 -5 7 -5.0625 3.9375 C-5.041875 2.968125 -5.02125 1.99875 -5 1 C-2 0 -2 0 0 0 Z " fill="#182938" transform="translate(509,181)"/>
<path d="M0 0 C0.99 0.33 1.98 0.66 3 1 C2.67 3.31 2.34 5.62 2 8 C0.35 7.67 -1.3 7.34 -3 7 C-2.25 2.25 -2.25 2.25 0 0 Z " fill="#12232F" transform="translate(592,171)"/>
<path d="M0 0 C0.495 0.309375 0.99 0.61875 1.5 0.9375 C4.9300941 2.39528999 8.28613758 3.08570452 12 3 C15.31805142 1.67570727 15.31805142 1.67570727 18 0 C18.66 0 19.32 0 20 0 C20 0.99 20 1.98 20 3 C14.29059151 4.98588121 9.03915135 5.47474133 3 5 C2.34 4.67 1.68 4.34 1 4 C0.375 1.9375 0.375 1.9375 0 0 Z " fill="#3F6D96" transform="translate(165,138)"/>
<path d="M0 0 C8.17367067 -0.4485551 13.97563746 -0.40744316 21 4 C19.13671875 5.046875 19.13671875 5.046875 17 6 C14.30066074 5.07451225 13.28813232 4.57626463 12 2 C9.1840151 1.53101037 9.1840151 1.53101037 5.9375 1.375 C4.28041016 1.26285156 4.28041016 1.26285156 2.58984375 1.1484375 C1.73519531 1.09945312 0.88054688 1.05046875 0 1 C0 0.67 0 0.34 0 0 Z " fill="#1F3243" transform="translate(513,105)"/>
<path d="M0 0 C1.06347656 0.00322266 2.12695312 0.00644531 3.22265625 0.00976562 C4.86427734 0.02233398 4.86427734 0.02233398 6.5390625 0.03515625 C7.65667969 0.03966797 8.77429688 0.04417969 9.92578125 0.04882812 C12.67193054 0.06056381 15.41796836 0.07698262 18.1640625 0.09765625 C18.1640625 0.42765625 18.1640625 0.75765625 18.1640625 1.09765625 C17.18010498 1.12738525 17.18010498 1.12738525 16.17626953 1.15771484 C13.21345181 1.25278132 10.25135718 1.36253377 7.2890625 1.47265625 C5.74025391 1.5190625 5.74025391 1.5190625 4.16015625 1.56640625 C2.68095703 1.62441406 2.68095703 1.62441406 1.171875 1.68359375 C0.26066895 1.71501465 -0.65053711 1.74643555 -1.58935547 1.77880859 C-4.03524936 1.89648136 -4.03524936 1.89648136 -5.8359375 4.09765625 C-5.8359375 3.43765625 -5.8359375 2.77765625 -5.8359375 2.09765625 C-7.8159375 2.09765625 -9.7959375 2.09765625 -11.8359375 2.09765625 C-11.8359375 1.76765625 -11.8359375 1.43765625 -11.8359375 1.09765625 C-7.83502346 0.3478092 -4.06844233 -0.02187335 0 0 Z " fill="#3E4A53" transform="translate(198.8359375,185.90234375)"/>
<path d="M0 0 C1.32 0.33 2.64 0.66 4 1 C4 5.62 4 10.24 4 15 C2.31948466 11.63896932 1.54407722 9.40746252 0.875 5.8125 C0.70742188 4.93207031 0.53984375 4.05164063 0.3671875 3.14453125 C0 1 0 1 0 0 Z " fill="#10202D" transform="translate(330,171)"/>
<path d="M0 0 C2.37706418 3.66539668 2.05094317 6.49056835 1.625 10.75 C1.51414062 11.92046875 1.40328125 13.0909375 1.2890625 14.296875 C1.19367188 15.18890625 1.09828125 16.0809375 1 17 C0.34 17 -0.32 17 -1 17 C-2.89505784 11.07794424 -2.22914492 5.71218387 0 0 Z " fill="#1E3141" transform="translate(323,121)"/>
<path d="M0 0 C1.9375 0.6875 1.9375 0.6875 4 2 C5.0625 4.3125 5.0625 4.3125 5 7 C2.5625 9.8125 2.5625 9.8125 0 12 C-0.33 11.01 -0.66 10.02 -1 9 C-0.34 9 0.32 9 1 9 C1.08886184 5.80097361 0.91058531 3.07322544 0 0 Z " fill="#213341" transform="translate(362,110)"/>
<path d="M0 0 C0.66 0.33 1.32 0.66 2 1 C0.90653119 2.34212062 -0.2001575 3.67347975 -1.3125 5 C-1.92738281 5.7425 -2.54226562 6.485 -3.17578125 7.25 C-5 9 -5 9 -8 9 C-8.33 10.32 -8.66 11.64 -9 13 C-9.33 12.01 -9.66 11.02 -10 10 C-7.0875615 5.97398207 -4.00508702 2.9752075 0 0 Z " fill="#447AAA" transform="translate(82,102)"/>
<path d="M0 0 C3.63 0 7.26 0 11 0 C11 0.99 11 1.98 11 3 C7.37 3 3.74 3 0 3 C0 2.01 0 1.02 0 0 Z " fill="#10345A" transform="translate(233,85)"/>
<path d="M0 0 C3.3 0 6.6 0 10 0 C10 0.99 10 1.98 10 3 C6.37 3 2.74 3 -1 3 C-0.67 2.01 -0.34 1.02 0 0 Z " fill="#113459" transform="translate(35,85)"/>
<path d="M0 0 C2.97 0.495 2.97 0.495 6 1 C6.33 2.32 6.66 3.64 7 5 C4.36 5 1.72 5 -1 5 C-0.67 3.35 -0.34 1.7 0 0 Z " fill="#182937" transform="translate(368,170)"/>
<path d="M0 0 C2.10754422 0.59227705 4.21095876 1.19926338 6.3125 1.8125 C8.07013672 2.31716797 8.07013672 2.31716797 9.86328125 2.83203125 C13 4 13 4 16 7 C12.7 6.34 9.4 5.68 6 5 C6 4.34 6 3.68 6 3 C3.03 2.505 3.03 2.505 0 2 C0 1.34 0 0.68 0 0 Z " fill="#092644" transform="translate(99,148)"/>
<path d="M0 0 C3.37227049 1.39367924 4.90493713 2.84275299 6.8125 5.9375 C7.25207031 6.62714844 7.69164062 7.31679687 8.14453125 8.02734375 C9 10 9 10 8 13 C7.525625 12.505 7.05125 12.01 6.5625 11.5 C5.24076302 9.88457803 5.24076302 9.88457803 4 10 C3.566875 8.63875 3.566875 8.63875 3.125 7.25 C2.23468224 4.67797092 1.28505587 2.38653234 0 0 Z " fill="#213342" transform="translate(476,111)"/>
<path d="M0 0 C3.63 2.31 7.26 4.62 11 7 C10.67 7.66 10.34 8.32 10 9 C7.36 8.67 4.72 8.34 2 8 C2.33 6.68 2.66 5.36 3 4 C2.34 4 1.68 4 1 4 C0.67 2.68 0.34 1.36 0 0 Z " fill="#4782B6" transform="translate(142,120)"/>
<path d="M0 0 C0 4.77023245 -2.96157748 8.43315618 -6 12 C-6.66 12 -7.32 12 -8 12 C-6.64994369 6.32976351 -4.1842771 3.82042691 0 0 Z " fill="#203343" transform="translate(444,110)"/>
<path d="M0 0 C1.98 0 3.96 0 6 0 C6.33 1.98 6.66 3.96 7 6 C6.01 5.67 5.02 5.34 4 5 C4 4.34 4 3.68 4 3 C2.35 3 0.7 3 -1 3 C-0.67 2.01 -0.34 1.02 0 0 Z " fill="#10212F" transform="translate(369,178)"/>
<path d="M0 0 C0.99 0 1.98 0 3 0 C1.51218185 3.78717347 -0.61988409 5.77407001 -4 8 C-4.99 7.67 -5.98 7.34 -7 7 C-6.34 7 -5.68 7 -5 7 C-5.33 6.01 -5.66 5.02 -6 4 C-4.7934375 3.566875 -4.7934375 3.566875 -3.5625 3.125 C-0.8673532 2.26737432 -0.8673532 2.26737432 0 0 Z " fill="#1E3140" transform="translate(478,145)"/>
<path d="M0 0 C0 3 0 3 -1 4.8125 C-2.28839078 7.63085484 -2.13918975 9.9378255 -2 13 C-2.99 12.34 -3.98 11.68 -5 11 C-5.29296875 8.8359375 -5.29296875 8.8359375 -5.1875 6.375 C-5.16042969 5.55773437 -5.13335937 4.74046875 -5.10546875 3.8984375 C-5.05326172 2.95871094 -5.05326172 2.95871094 -5 2 C-4.360625 1.855625 -3.72125 1.71125 -3.0625 1.5625 C-1.02454854 1.18992819 -1.02454854 1.18992819 0 0 Z " fill="#1B3A57" transform="translate(210,108)"/>
<path d="M0 0 C3.65786455 3.36128094 6.1784694 6.34497737 8 11 C7.67 11.99 7.34 12.98 7 14 C6.66226563 13.44570312 6.32453125 12.89140625 5.9765625 12.3203125 C5.53054688 11.59585938 5.08453125 10.87140625 4.625 10.125 C4.18414063 9.40570313 3.74328125 8.68640625 3.2890625 7.9453125 C2.0146287 5.88206418 2.0146287 5.88206418 0 4 C0 2.68 0 1.36 0 0 Z " fill="#1E303F" transform="translate(537,112)"/>
<path d="M0 0 C0.99 0.33 1.98 0.66 3 1 C1.36587557 2.70840281 0.13093906 3.93453047 -2 5 C-2.33 5.99 -2.66 6.98 -3 8 C-4.65 8.33 -6.3 8.66 -8 9 C-7.67 8.01 -7.34 7.02 -7 6 C-6.34 6 -5.68 6 -5 6 C-4.67 5.01 -4.34 4.02 -4 3 C-2.125 1.25 -2.125 1.25 0 0 Z " fill="#1F3242" transform="translate(506,108)"/>
<path d="M0 0 C0.86625 0.4640625 0.86625 0.4640625 1.75 0.9375 C3.89225539 2.09200481 3.89225539 2.09200481 6 2.25 C9.72845527 3.64817072 11.29051272 7.58102545 13 11 C10.05043472 9.63055898 7.47531189 8.12169591 5 6 C5 5.34 5 4.68 5 4 C4.360625 3.71125 3.72125 3.4225 3.0625 3.125 C1 2 1 2 0 0 Z " fill="#1C2E3E" transform="translate(193,89)"/>
<path d="M0 0 C1.98 0.99 1.98 0.99 4 2 C3.01 2.495 3.01 2.495 2 3 C1.34 2.67 0.68 2.34 0 2 C0 1.34 0 0.68 0 0 Z M-1 2 C1 3 1 3 2.125 6.0625 C2.41375 7.031875 2.7025 8.00125 3 9 C2.01 8.34 1.02 7.68 0 7 C-0.66 7.66 -1.32 8.32 -2 9 C-2.625 6.625 -2.625 6.625 -3 4 C-2.34 3.34 -1.68 2.68 -1 2 Z " fill="#1F3243" transform="translate(438,175)"/>
<path d="M0 0 C2.3129482 2.3129482 2.49580975 3.47904875 3.125 6.625 C3.29257813 7.44226563 3.46015625 8.25953125 3.6328125 9.1015625 C3.81457031 10.04128906 3.81457031 10.04128906 4 11 C3.01 11.495 3.01 11.495 2 12 C-3.875 8.25 -3.875 8.25 -5 6 C-4.38125 6.33 -3.7625 6.66 -3.125 7 C-1.08981656 8.14193235 -1.08981656 8.14193235 1 8 C0.67 5.36 0.34 2.72 0 0 Z " fill="#24394B" transform="translate(156,93)"/>
<path d="M0 0 C-0.556875 0.0825 -1.11375 0.165 -1.6875 0.25 C-4.18663349 0.90510666 -4.18663349 0.90510666 -6.4375 3 C-9.09612686 5.07502584 -10.70014614 5.62287384 -14 6 C-6.58333333 -1.8287037 -6.58333333 -1.8287037 0 0 Z " fill="#1A2D3D" transform="translate(143,92)"/>
<path d="M0 0 C0.66 0 1.32 0 2 0 C2 2.97 2 5.94 2 9 C1.01 9.33 0.02 9.66 -1 10 C-1.02689216 8.52093108 -1.04634621 7.04172517 -1.0625 5.5625 C-1.07410156 4.73878906 -1.08570313 3.91507813 -1.09765625 3.06640625 C-1 1 -1 1 0 0 Z " fill="#10202D" transform="translate(557,174)"/>
<path d="M0 0 C2.3125 0.1875 2.3125 0.1875 4 1 C3.34 2.65 2.68 4.3 2 6 C0.68 5.01 -0.64 4.02 -2 3 C-2.33 3.99 -2.66 4.98 -3 6 C-3.66 5.67 -4.32 5.34 -5 5 C-2.75 2.4375 -2.75 2.4375 0 0 Z " fill="#1F3241" transform="translate(512,170)"/>
<path d="M0 0 C1.27875 -0.061875 2.5575 -0.12375 3.875 -0.1875 C4.95394531 -0.23970703 4.95394531 -0.23970703 6.0546875 -0.29296875 C6.69664062 -0.19628906 7.33859375 -0.09960938 8 0 C8.66 0.99 9.32 1.98 10 3 C9.30132812 2.98839844 8.60265625 2.97679688 7.8828125 2.96484375 C6.97273438 2.95582031 6.06265625 2.94679688 5.125 2.9375 C4.22007812 2.92589844 3.31515625 2.91429688 2.3828125 2.90234375 C-0.0168585 2.83750743 -0.0168585 2.83750743 -2 4 C-1.34 2.68 -0.68 1.36 0 0 Z " fill="#1D3040" transform="translate(414,105)"/>
<path d="M0 0 C1.32 1.32 2.64 2.64 4 4 C2.02 4.99 2.02 4.99 0 6 C0 6.66 0 7.32 0 8 C-0.99 8.33 -1.98 8.66 -3 9 C-2.5020163 5.26512223 -2.12508244 3.18762365 0 0 Z M0 3 C-0.33 3.66 -0.66 4.32 -1 5 C-0.34 5 0.32 5 1 5 C0.67 4.34 0.34 3.68 0 3 Z " fill="#283C4E" transform="translate(151,218)"/>
<path d="M0 0 C2.0625 0.4375 2.0625 0.4375 4 1 C2.02 1.99 2.02 1.99 0 3 C0 7.62 0 12.24 0 17 C-0.33 17 -0.66 17 -1 17 C-1.02684679 14.35409986 -1.04676357 11.70846904 -1.0625 9.0625 C-1.07087891 8.30775391 -1.07925781 7.55300781 -1.08789062 6.77539062 C-1.09652441 4.85005687 -1.05224333 2.92464419 -1 1 C-0.67 0.67 -0.34 0.34 0 0 Z " fill="#203343" transform="translate(576,170)"/>
<path d="M0 0 C0 0.33 0 0.66 0 1 C-1.65 1.33 -3.3 1.66 -5 2 C-5.33 2.99 -5.66 3.98 -6 5 C-6.99 5.33 -7.98 5.66 -9 6 C-8.67 4.02 -8.34 2.04 -8 0 C-4.71023192 -1.09658936 -3.28696233 -0.79953138 0 0 Z " fill="#142533" transform="translate(528,172)"/>
<path d="M0 0 C1.65 0 3.3 0 5 0 C4 3 4 3 2 5 C1.67 5.99 1.34 6.98 1 8 C0.34 8 -0.32 8 -1 8 C-0.67 5.36 -0.34 2.72 0 0 Z " fill="#4D8FCA" transform="translate(67,122)"/>
<path d="M0 0 C1.875 0.25 1.875 0.25 4 1 C5.25 3.0625 5.25 3.0625 6 5 C2 5 2 5 -1 3 C-0.67 2.01 -0.34 1.02 0 0 Z " fill="#0F1F2B" transform="translate(384,172)"/>
<path d="M0 0 C0.66 0.66 1.32 1.32 2 2 C-0.07553648 2.5534764 -1.84365964 3 -4 3 C-5.67745682 3.63903117 -7.34561387 4.30341637 -9 5 C-9.33 4.34 -9.66 3.68 -10 3 C-6.70335635 -0.04305568 -4.44038228 -0.48265025 0 0 Z " fill="#1F3241" transform="translate(362,138)"/>
<path d="M0 0 C1.32 0 2.64 0 4 0 C3.25 7.75 3.25 7.75 1 10 C1.33 7.36 1.66 4.72 2 2 C0.68 2.33 -0.64 2.66 -2 3 C-1.34 2.01 -0.68 1.02 0 0 Z " fill="#3C668B" transform="translate(98,90)"/>
<path d="M0 0 C-1.38188453 3.21043882 -2.92421903 5.04936365 -5.625 7.25 C-6.57246094 8.03117187 -6.57246094 8.03117187 -7.5390625 8.828125 C-8.02117187 9.21484375 -8.50328125 9.6015625 -9 10 C-9.66 9.67 -10.32 9.34 -11 9 C-9.54782324 7.49403892 -8.08807139 5.99537896 -6.625 4.5 C-5.40683594 3.24703125 -5.40683594 3.24703125 -4.1640625 1.96875 C-2 0 -2 0 0 0 Z " fill="#192B3B" transform="translate(77,78)"/>
<path d="M0 0 C3.53372712 1.96318174 6.24479785 4.04070881 9 7 C8.67 7.66 8.34 8.32 8 9 C6.66079162 7.88200014 5.32877444 6.75538103 4 5.625 C2.88625 4.68527344 2.88625 4.68527344 1.75 3.7265625 C1.1725 3.15679687 0.595 2.58703125 0 2 C0 1.34 0 0.68 0 0 Z " fill="#0C2948" transform="translate(126,162)"/>
<path d="M0 0 C0.66 0 1.32 0 2 0 C0.84826645 2.46800047 -0.04783565 4.04783565 -2 6 C-2.33 6.845625 -2.66 7.69125 -3 8.5625 C-4 11 -4 11 -6 12 C-5.32505119 7.78156993 -3.01938931 3.01938931 0 0 Z " fill="#1C2F3F" transform="translate(43,123)"/>
<path d="M0 0 C-7.28571429 4.57142857 -7.28571429 4.57142857 -12 4 C-4.75 -1.69642857 -4.75 -1.69642857 0 0 Z " fill="#0E2D4D" transform="translate(178,150)"/>
<path d="M0 0 C3.79588866 0.54226981 5.47211993 2.20127563 8 5 C7.01 5.33 6.02 5.66 5 6 C2.3125 4.1875 2.3125 4.1875 0 2 C0 1.34 0 0.68 0 0 Z " fill="#1F313F" transform="translate(303,127)"/>
<path d="M0 0 C0.66 0 1.32 0 2 0 C2.33 2.64 2.66 5.28 3 8 C2.01 8.33 1.02 8.66 0 9 C0 6.03 0 3.06 0 0 Z " fill="#10202D" transform="translate(319,178)"/>
<path d="M0 0 C1.32 0.33 2.64 0.66 4 1 C3.67 2.32 3.34 3.64 3 5 C1.35 4.67 -0.3 4.34 -2 4 C-1.34 2.68 -0.68 1.36 0 0 Z " fill="#3A7AB4" transform="translate(203,129)"/>
<path d="M0 0 C4.75 0.875 4.75 0.875 7 2 C6.34 3.32 5.68 4.64 5 6 C4.67 5.01 4.34 4.02 4 3 C2.68 3 1.36 3 0 3 C0 2.01 0 1.02 0 0 Z " fill="#12222D" transform="translate(524,178)"/>
<path d="M0 0 C0.99 0.33 1.98 0.66 3 1 C-3 7 -3 7 -5.5625 7.0625 C-6.7690625 7.0315625 -6.7690625 7.0315625 -8 7 C-6.72530598 4.45061196 -5.50840774 4.25420387 -3 3 C-1.29078411 1.4587688 -1.29078411 1.4587688 0 0 Z " fill="#203445" transform="translate(591,170)"/>
<path d="M0 0 C0.66 0.33 1.32 0.66 2 1 C2.1875 3.875 2.1875 3.875 2 7 C1.01 7.66 0.02 8.32 -1 9 C-1.33 7.68 -1.66 6.36 -2 5 C-1.34 5 -0.68 5 0 5 C0 3.35 0 1.7 0 0 Z " fill="#4D91CD" transform="translate(211,123)"/>
<path d="M0 0 C0.56203125 0.30679688 1.1240625 0.61359375 1.703125 0.9296875 C4.06346934 2.02957585 6.20465562 2.60095851 8.75 3.125 C9.54921875 3.29257813 10.3484375 3.46015625 11.171875 3.6328125 C11.77515625 3.75398437 12.3784375 3.87515625 13 4 C13 4.33 13 4.66 13 5 C9.62114388 5.28526928 6.36708009 5.46087248 3 5 C0.875 2.5 0.875 2.5 0 0 Z " fill="#3E6C94" transform="translate(95,138)"/>
<path d="M0 0 C0.66 0.99 1.32 1.98 2 3 C-2.43076923 6.07692308 -2.43076923 6.07692308 -5.3125 5.6875 C-5.869375 5.460625 -6.42625 5.23375 -7 5 C-5.824375 4.87625 -5.824375 4.87625 -4.625 4.75 C-1.85250896 4.27193661 -1.85250896 4.27193661 -0.6875 1.9375 C-0.460625 1.298125 -0.23375 0.65875 0 0 Z " fill="#1E3040" transform="translate(530,137)"/>
<path d="M0 0 C1.0828125 0.7115625 1.0828125 0.7115625 2.1875 1.4375 C4.89475226 2.94152903 6.96194275 3.56599182 10 4 C10 4.33 10 4.66 10 5 C8.56163249 4.88541307 7.12429034 4.75790884 5.6875 4.625 C4.88699219 4.55539063 4.08648437 4.48578125 3.26171875 4.4140625 C1 4 1 4 -2 2 C-1.34 1.34 -0.68 0.68 0 0 Z " fill="#4C8DC6" transform="translate(62,134)"/>
<path d="M0 0 C0.66 0 1.32 0 2 0 C2.33 1.32 2.66 2.64 3 4 C0.03 4 -2.94 4 -6 4 C-4.68 3.34 -3.36 2.68 -2 2 C-1.34 1.34 -0.68 0.68 0 0 Z " fill="#4683B9" transform="translate(217,134)"/>
<path d="M0 0 C0.79921875 0.00902344 1.5984375 0.01804688 2.421875 0.02734375 C3.02515625 0.03894531 3.6284375 0.05054688 4.25 0.0625 C4.25 0.3925 4.25 0.7225 4.25 1.0625 C2.83800422 1.45472105 1.42007236 1.82561059 0 2.1875 C-0.78890625 2.39632812 -1.5778125 2.60515625 -2.390625 2.8203125 C-5.1703071 3.10564411 -6.40887549 2.51227894 -8.75 1.0625 C-5.75519083 0.1901588 -3.11424089 -0.04579766 0 0 Z " fill="#39454F" transform="translate(194.75,166.9375)"/>
<path d="M0 0 C0.33 0 0.66 0 1 0 C1.268125 0.9075 1.53625 1.815 1.8125 2.75 C2.89576294 5.71471963 3.98359457 7.6169754 6 10 C2.73058318 9.05358987 1.33177722 8.58815053 -0.375 5.5625 C-1 3 -1 3 0 0 Z " fill="#253848" transform="translate(273,142)"/>
<path d="M0 0 C0.99 0.33 1.98 0.66 3 1 C3 4.3 3 7.6 3 11 C2.01 11 1.02 11 0 11 C0 7.37 0 3.74 0 0 Z " fill="#203342" transform="translate(531,125)"/>
<path d="M0 0 C2.475 0.495 2.475 0.495 5 1 C4.01 1.33 3.02 1.66 2 2 C2.33 3.98 2.66 5.96 3 8 C0.4345406 5.4345406 0.45953913 3.52313332 0 0 Z " fill="#386083" transform="translate(177,90)"/>
<path d="M0 0 C1.32 0 2.64 0 4 0 C4 0.66 4 1.32 4 2 C5.65 2.33 7.3 2.66 9 3 C9 3.66 9 4.32 9 5 C5.22454612 3.90931332 2.52956528 3.0916909 0 0 Z " fill="#4C93D2" transform="translate(110,151)"/>
</svg>
